<svg xmlns="http://www.w3.org/2000/svg" xmlns:xlink="http://www.w3.org/1999/xlink" viewBox="0 0 700 439.96"><defs><linearGradient id="ea16edb4-be73-4bdd-a1c3-c903c1d56a8c" x1="54.01" y1="244.18" x2="654.1" y2="244.18" gradientUnits="userSpaceOnUse"><stop offset="0.62" stop-color="#97d2b1"/><stop offset="1" stop-color="#97d2b1" stop-opacity="0"/></linearGradient><linearGradient id="bb27c8fb-7867-497b-b720-dc3cd52ae90b" x1="385.13" y1="245.53" x2="500.28" y2="187.33" gradientUnits="userSpaceOnUse"><stop offset="0.61" stop-color="#b7377b"/><stop offset="0.65" stop-color="#b63c7d" stop-opacity="0.95"/><stop offset="0.73" stop-color="#b34a81" stop-opacity="0.8"/><stop offset="0.84" stop-color="#af6089" stop-opacity="0.56"/><stop offset="0.96" stop-color="#a87e93" stop-opacity="0.24"/><stop offset="1" stop-color="#a68997" stop-opacity="0.13"/></linearGradient><linearGradient id="a6085993-a734-4578-86a6-78074945aef8" x1="232.15" y1="218.23" x2="285.54" y2="329.99" gradientUnits="userSpaceOnUse"><stop offset="0.55" stop-color="#6156d6"/><stop offset="0.93" stop-color="#97d2b1"/></linearGradient></defs><g style="isolation:isolate"><g id="e40c46d4-eb9f-4bd6-9c34-031cfb3045f1" data-name="Line"><path d="M654.1,223.63s-28.07,9.26-56.64-2.51c-52.21-21.51-69.16-104.8-123-104.8-101.28,0-71.59,197.15-135.58,197.15H337c-64,0-34.31-197.15-135.58-197.15-53.83,0-83.1,104-128.86,104L54,276.8c106,0,108.33-101.94,148.37-101.94C254.52,174.86,233.66,372,337,372h1.94c103.28,0,82.42-197.18,134.57-197.18,30.68,0,39.23,59.75,89.24,87.76,42.42,23.75,87.39,13.43,87.39,13.43" stroke="#252137" stroke-miterlimit="10" fill="url(#ea16edb4-be73-4bdd-a1c3-c903c1d56a8c)"/><path d="M484.18,153.26s-8.55-7.42-22.94-2C421.53,166.13,418.51,266.16,369.7,321c43.18-46.33,49.1-163.43,88.17-179.93,20.24-8.54,29.46,5.4,29.46,5.4" opacity="0.5" fill="url(#bb27c8fb-7867-497b-b720-dc3cd52ae90b)"/><polygon points="203.84 53.37 198.1 52.64 201.84 47.47 197.35 51.73 196.88 40.36 196.27 51.72 191.87 47.32 195.5 52.6 189.74 53.15 195.48 53.87 191.74 59.04 196.24 54.78 196.7 65.81 197.31 54.8 201.71 59.19 198.09 53.91 203.84 53.37" fill="#f2dc7e"/><polygon points="508.67 176.93 472.06 169.44 474.96 166.13 496.91 166.6 508.67 176.93" fill="#f9e06d" stroke="#252137" stroke-miterlimit="10" stroke-width="0.75"/><polygon points="482.83 166.3 478.85 170.83 476.66 170.38 480.29 166.25 482.83 166.3" fill="#97d2b1" stroke="#252137" stroke-miterlimit="10" stroke-width="0.75"/><path d="M538.63,195a62.44,62.44,0,0,1-7.85-10.85l-2,2.23-2,2.23A62.4,62.4,0,0,1,538.63,195Z" fill="#e39ac1" stroke="#252137" stroke-miterlimit="10" stroke-width="0.75"/><polygon points="516.83 167.65 504.67 132.31 501.77 135.61 505.07 157.32 516.83 167.65" fill="#f9e06d" stroke="#252137" stroke-miterlimit="10" stroke-width="0.75"/><polygon points="502.95 143.39 506.93 138.87 506.2 136.75 502.57 140.88 502.95 143.39" fill="#97d2b1" stroke="#252137" stroke-miterlimit="10" stroke-width="0.75"/><path d="M498.56,168.67l11.24,9.86c4.47,3.94,11.05,8.81,17,10.12a3.77,3.77,0,0,0,3.19-1.2,3.67,3.67,0,0,0,.76-3.29c-2.07-5.77-7.75-11.67-12.23-15.6l-11.24-9.87" fill="#42b19c" stroke="#252137" stroke-miterlimit="10" stroke-width="0.75"/><path d="M505.52,165.92c2.17-2.46,2.9-5.46,1.89-7.17-.11-.18-5.58-8.29-5.58-8.29l-12.14,13.82,8.63,4.26C500.11,169.63,503.22,168.54,505.52,165.92Z" fill="#e39ac1" stroke="#252137" stroke-miterlimit="10" stroke-width="0.75"/><path d="M500.09,161.17c3.35-3.82,4.13-8.61,1.74-10.71L493,142.68l-12.14,13.81,8.86,7.79C492.08,166.38,496.74,165,500.09,161.17Z" fill="#e39ac1" stroke="#252137" stroke-miterlimit="10" stroke-width="0.75"/><path d="M510.09,178.75c1.68,1.47,5,.44,7.41-2.31s3-6.17,1.33-7.64l2.65,2.32c1.67,1.47,1.07,4.9-1.34,7.64s-5.73,3.78-7.4,2.31Z" fill="#e39ac1" stroke="#252137" stroke-miterlimit="10" stroke-width="0.75"/><polygon points="511.76 171.42 498.83 156.09 494.37 153.71 493.82 154.34 492.51 155.84 491.95 156.46 494.89 160.58 511.76 171.42" fill="#f9e06d" stroke="#252137" stroke-miterlimit="10" stroke-width="0.75"/><ellipse cx="486.91" cy="149.57" rx="9.18" ry="5.76" transform="translate(53.2 416.68) rotate(-48.7)" fill="#97d2b1" stroke="#252137" stroke-miterlimit="10" stroke-width="0.75"/><ellipse cx="486.91" cy="149.57" rx="6.43" ry="3.39" transform="translate(53.2 416.68) rotate(-48.7)" fill="#ce6aa3" stroke="#252137" stroke-miterlimit="10" stroke-width="0.75"/><circle cx="135.54" cy="85.99" r="3" fill="#8ca5f2"/><polygon points="81.06 149.06 70.25 147.69 77.29 137.95 68.83 145.98 67.95 124.55 66.8 145.95 58.51 137.66 65.34 147.62 54.5 148.65 65.31 150.01 58.27 159.75 66.73 151.72 67.61 172.5 68.76 151.75 77.05 160.04 70.22 150.08 81.06 149.06" fill="#e39ac1"/><circle cx="438.99" cy="341.65" r="3.1" fill="#c36eea"/><circle cx="143.47" cy="307.04" r="5.33" fill="#97d2b1"/><circle cx="189.93" cy="261.5" r="3" fill="#8ca5f2"/><circle cx="281.74" cy="83.07" r="30.07" fill="#479e72" stroke="#252137" stroke-miterlimit="10"/><path d="M309.37,91.62a10.72,10.72,0,0,0,1.08.39,30.07,30.07,0,0,0-46.26-33.36,3.88,3.88,0,0,0,.43.51,2,2,0,0,1,.36,1.77,3.15,3.15,0,0,1-.54.94c-.2.23-.55.44-.69.72-.29.59.4,1.44.81,1.81.63.56,1.55.28,2.29.11s1.38-.3,1.9.28a10.08,10.08,0,0,1,1.07,2,5.74,5.74,0,0,1,.53,1.05,6,6,0,0,0,.62,1.42c.31.47.57.95.85,1.44A11,11,0,0,0,273,72.28a5.83,5.83,0,0,0,1.82,2,13.71,13.71,0,0,1,2.77,1.89c.28.24.59.46.84.72.47.49.77,1.14,1.23,1.65a4.91,4.91,0,0,1,.75,1.32,9,9,0,0,0,1.13,1.85c.46.59.81,1.35,1.49,1.71s1.4.85,2.12,1.24a3.62,3.62,0,0,0,1.66.51,8.33,8.33,0,0,1,2.11.24c1,.32,2.14.36,3.17.63a3,3,0,0,1,1.33.43c.43.36.75.86,1.15,1.25a9.91,9.91,0,0,1,1.06,1.09c.36.5.61,1.06.93,1.59s.78,1.13,1.15,1.71a4.42,4.42,0,0,0,.68,1.07,4.66,4.66,0,0,0,1.22.84,6.86,6.86,0,0,0,1.17.61c.25.06.59-.13.84-.22a1.14,1.14,0,0,0,.69-.59,7.08,7.08,0,0,1,1.35-1.44,4.55,4.55,0,0,1,1.33-.74,4.64,4.64,0,0,1,1.75-.36A6.28,6.28,0,0,1,309.37,91.62Z" fill="#f2b06d" stroke="#252137" stroke-miterlimit="10"/><path d="M298.35,58a30,30,0,0,0-24.75-3.87,3.32,3.32,0,0,0-.42.32,26.8,26.8,0,0,0-2.58,2.64c-.38.48-.76.83-.67,1.51.05.37.13.75.21,1.12a4.75,4.75,0,0,0,.12.74c.12.31.56.54.77.79a7.12,7.12,0,0,0,1,1,4,4,0,0,0,1.13.56,7.93,7.93,0,0,1,1.36.77,22.49,22.49,0,0,1,2.2,1.37,4.26,4.26,0,0,1,1.11,1.65,16.31,16.31,0,0,1,.4,1.64c.2.86.84,1,1.59,1.17A4.18,4.18,0,0,1,283,72.26a6.17,6.17,0,0,0,.74,2.11A7.86,7.86,0,0,0,285.85,76a8.17,8.17,0,0,0,2.33.46,13.74,13.74,0,0,0,2.9.55,13.45,13.45,0,0,1,1.42,0,13.86,13.86,0,0,1,1.72.39,7.46,7.46,0,0,1,2.51,1.39,2.44,2.44,0,0,1,.84,1.27,5.37,5.37,0,0,1,.36,1.16c0,.34,0,.7,0,1a4.54,4.54,0,0,0,.25,1.31,3.87,3.87,0,0,0,2,1.69,3.19,3.19,0,0,0,2,.33,18,18,0,0,1,2.07-.38,4.61,4.61,0,0,1,2.06.19c.71.33,1,1.19,1.71,1.53a1.78,1.78,0,0,0,.68.16,5.72,5.72,0,0,0,1.09.08,10,10,0,0,1,1.73,0A30.08,30.08,0,0,0,298.35,58Z" fill="#6bb28b" stroke="#252137" stroke-miterlimit="10"/><path d="M298.35,58a30.18,30.18,0,0,0-10-4.26c.06.14.11.29.18.42a9.66,9.66,0,0,1,.5,1c.17.39.32.79,0,1.14a1.49,1.49,0,0,1-.79.4,1.38,1.38,0,0,1-.78,0,12.81,12.81,0,0,0-1.61-.34,2.12,2.12,0,0,0-2.08.68,2.37,2.37,0,0,0,.18,2,3.64,3.64,0,0,0,2,1.81c1.78.72,3.69,1,5.32,2.11a8.92,8.92,0,0,1,1.92,1.81,9.43,9.43,0,0,1,1,2.35,4.66,4.66,0,0,0,.61,1,8.13,8.13,0,0,0,1.46,1.58,9.85,9.85,0,0,0,1.3.65c.51.25,1,.53,1.51.83a6.46,6.46,0,0,1,2,1.57,7.5,7.5,0,0,0,1.76,1.66c.61.42,1.43,1,2.17.43.43-.31.52-1,.89-1.38.72-.64,1.81.61,2.31,1,.26.21.56.35.83.53a9.67,9.67,0,0,1,1,.85,3.23,3.23,0,0,0,1,.73h0A30,30,0,0,0,298.35,58Z" fill="#f9e06d" stroke="#252137" stroke-miterlimit="10"/><path d="M252.46,88.3a1,1,0,0,0-.37-.26,30.06,30.06,0,0,0,54.72,11.64l.21-.34c-.53-.07-1.08-.08-1.58-.13s-.88-.09-1.32-.1a5,5,0,0,0-1.28.2,13.66,13.66,0,0,1-2.17.43,2.3,2.3,0,0,1-1,0c-.25-.08-.49-.21-.75-.27s-.46,0-.7-.07a3.12,3.12,0,0,1-1.52-1c-.44-.39-.88-.78-1.3-1.17a6.67,6.67,0,0,0-2.7-1.79,2.32,2.32,0,0,0-2,.46,5.24,5.24,0,0,1-4.06.86,13.06,13.06,0,0,1-2.1-.82,9.59,9.59,0,0,0-1.2-.6,10.21,10.21,0,0,0-3.11.21c-.35.1-.67.24-1,.31a7.8,7.8,0,0,0-1,.45,10,10,0,0,1-1.45,0,3.71,3.71,0,0,1-1.05,0c-1.07-.18-2.14-.16-3.22-.26a10.34,10.34,0,0,0-2.07.18c-.53.06-1.06.08-1.59.11-.85,0-1.7.34-2.55.33a9,9,0,0,1-2.81-.44,3.22,3.22,0,0,1-1.77-1.18,16.87,16.87,0,0,0-1.19-1.56,2.57,2.57,0,0,0-.8-.63c-.3-.13-.62-.12-.92-.23a2.11,2.11,0,0,1-1.29-1.22c-.2-.58-.31-1.17-.45-1.75a1.89,1.89,0,0,0-1.11-1.4,2,2,0,0,0-1.74-.13,2.39,2.39,0,0,0-.72.46c-.13.12-.27.41-.49.37S252.59,88.46,252.46,88.3Z" fill="#e2ae54" stroke="#252137" stroke-miterlimit="10"/><path d="M258.78,72.84a6.59,6.59,0,0,1-.3-1.63c0-.34,0-.2.14-.45a.65.65,0,0,1,.3-.31,2.66,2.66,0,0,1,1.3-.28,3.74,3.74,0,0,1,.89.08,10.16,10.16,0,0,1,1.17.52,4.55,4.55,0,0,1,.9.48,2.14,2.14,0,0,0,1.06.24,7.88,7.88,0,0,1,.94.2,1.71,1.71,0,0,1,1.14.69,11,11,0,0,1,1,1.92,7.91,7.91,0,0,0,.85,1.6c.33.41.69.78,1,1.19a3.46,3.46,0,0,0,.9.85,6,6,0,0,0,1.06.41,7.21,7.21,0,0,1,1.38.78,9.42,9.42,0,0,0,1.93,1,3.82,3.82,0,0,1,1,.49,11.65,11.65,0,0,1,1,1.11,9.62,9.62,0,0,1,1.14,1.07c.37.54.71,1.14,1,1.71s.06.64,0,1.08,0,.95-.38,1.28a2.5,2.5,0,0,1-2.4.21c-.47-.16-.9-.45-1.35-.64a5.14,5.14,0,0,1-1.1-.67c-.92-.74-1.94-1.36-2.85-2.11-.49-.4-.82-1-1.32-1.37s-1-.43-1.48-.81a14.55,14.55,0,0,0-1.34-1.13,2.93,2.93,0,0,0-1.53-.44c-.54-.06-1.12-.08-1.66-.19s-.79-.25-1.19-.38a3.07,3.07,0,0,1-2-1.14,7.54,7.54,0,0,1-.72-2.41c-.12-.58,0-1.18-.17-1.76C259.14,73.82,258.87,73.24,258.78,72.84Z" fill="#f9e06d" stroke="#252137" stroke-miterlimit="10"/><path d="M265.82,105c-.39-.47-.75-1-1.1-1.44.14-.14.06-.37.25-.54a2.35,2.35,0,0,1,1.06-.42c.9-.16,1.74.53,2.64.56,1.72.06,3.29-.88,5-1a5.05,5.05,0,0,1,2.46.88,6.82,6.82,0,0,1,2,2.27,6.23,6.23,0,0,0,2.52,1.78,3.44,3.44,0,0,0,1.52.45c.55,0,1.08-.08,1.64-.08a7.87,7.87,0,0,1,3.05.39c.56.23,1.31.94,1,1.63s-1.49.67-2.2.65a13.63,13.63,0,0,1-3.38-.18c-.67-.18-1.36-.2-2-.35s-1.05-.25-1.6-.34-1.23-.19-1.84-.3-1-.27-1.47-.32-.71.15-1.13.5c-.2.16-.49.41-.77.39s-.39-.13-.57-.15a4.48,4.48,0,0,1-.62-.11,2.89,2.89,0,0,1-1-.48c-.25-.18-.44-.45-.69-.62a2,2,0,0,0-1.21-.35c-.69,0-1.48.21-2-.3s-.34-.85-.54-1.4C266.64,105.83,266.07,105.81,265.82,105Z" fill="#42b19c" stroke="#252137" stroke-miterlimit="10"/><path d="M288.9,66.79a13.62,13.62,0,0,1-1.52-1.94,2.3,2.3,0,0,0-.36-.52c-.42-.39-1-.34-1.47-.44-.83-.18-1.54-.58-2.37-.77-.43-.09-.91-.18-.87.46,0,.91,1.31,1.14,1.93,1.54a2.84,2.84,0,0,1,1,1.41c.11.39-.09.68-.06,1.06.08,1,1.19,1.82,2.06,2.17.46.18.73.66,1.08,1a3.67,3.67,0,0,0,1.7,1.09c.32.08.66.13,1,.19a3.76,3.76,0,0,0,.93.15c.31,0,.93-.18,1-.54.08-.9-1.47-.89-2-1.23a15.74,15.74,0,0,1-1.42-1.29c-.29-.26-.28-.38-.1-.7s.29-.4.25-.7S289.39,67.34,288.9,66.79Z" fill="#e39ac1" stroke="#252137" stroke-miterlimit="10"/><path d="M302.18,63.73c.05.05-1.37-1.4-1.8-1.45a1.93,1.93,0,0,0-.24,0c-.28,0-.55,0-.83,0-.49,0-.92.23-1.4.26a3.13,3.13,0,0,1-1.73-.47c-.32-.17-.78-.63-1.17-.37s.16,1.08.46,1.31a9.27,9.27,0,0,0,2.36,1.22,22.82,22.82,0,0,1,2.63,1.16c.85.43,1.39,1.37,2.18,1.9a11,11,0,0,1,1.38.87,3.43,3.43,0,0,0,1.57,1,1.47,1.47,0,0,0,1-.2c.24-.22.11-.82,0-1.07a3.53,3.53,0,0,0-1.13-1.78,4.25,4.25,0,0,1-.62-.94c-.22-.36-.47-.92-.89-1.07a1.74,1.74,0,0,0-1,0C302.86,64.18,302.54,64.18,302.18,63.73Z" fill="#e39ac1" stroke="#252137" stroke-miterlimit="10"/><path d="M311,90.05a30.74,30.74,0,0,1-1.42,4.39c4.91,5.13,7.28,9.24,6,11.19-2.66,4-20-2.77-38.72-15.18s-31.73-25.72-29.07-29.74c1.29-2,6-1.37,12.64,1.15a29.19,29.19,0,0,1,3.49-3c-13.14-5.61-23.35-7-26.15-2.78-4.42,6.67,11.24,24.83,35,40.57s46.58,23.08,51,16.41C326.56,108.82,321.28,100,311,90.05Z" fill="#e39ac1" stroke="#252137" stroke-miterlimit="10"/><circle cx="361.41" cy="175.31" r="6.91" fill="#f490fc"/><circle cx="482.75" cy="388.61" r="7.16" fill="#f9e06d"/><circle cx="326.97" cy="208.97" r="4.1" fill="#f2b06d"/><polygon points="540.78 67.11 524.93 65.12 535.25 50.84 522.85 62.61 521.56 31.2 519.87 62.56 507.73 50.41 517.73 65.01 501.84 66.52 517.69 68.51 507.37 82.79 519.77 71.02 521.05 101.48 522.75 71.07 534.89 83.22 524.89 68.62 540.78 67.11" fill="#97d2b1"/><polygon points="578.01 359.67 569.68 358.63 575.11 351.12 568.59 357.31 567.92 340.81 567.03 357.28 560.65 350.9 565.91 358.57 557.56 359.36 565.88 360.41 560.46 367.91 566.98 361.73 567.65 377.73 568.54 361.75 574.92 368.13 569.66 360.47 578.01 359.67" fill="#9fb1ff"/><circle cx="504.58" cy="301.36" r="22.79" fill="#8f7ef2" stroke="#252137" stroke-miterlimit="10"/><path d="M489.39,284.37a22.79,22.79,0,0,0-5,27.6,7,7,0,0,0,1.64-.55,3.81,3.81,0,0,1,1.58-.4c.71,0,1,.56,1.46,1.08a3.45,3.45,0,0,0,3.4,1.2,22.85,22.85,0,0,0,2.17-1.17,5.64,5.64,0,0,0,1.58-1.17,18.18,18.18,0,0,0,1.61-2.36c.47-.68,1.24-.93,1.72-1.6a21.94,21.94,0,0,1,1.56-1.93c.67-.77,1.62-.9,2.5-1.36a25.64,25.64,0,0,1,2.29-1.31c.58-.22,1.51-.12,1.76-.75s.35-1.29.6-1.9a4.05,4.05,0,0,1,2.74-2,11.24,11.24,0,0,0,2.23-.88,13.46,13.46,0,0,1,2.47-1.14c.63-.21,1.17-.23,1.15-1a7.6,7.6,0,0,0-.43-1.48,3.5,3.5,0,0,1,1-3.47c.58-.46,1.24-.81,1.78-1.29a6,6,0,0,1,2.14-1.34c.26-.09.51-.2.76-.3-.18-.23-.37-.45-.56-.67A22.8,22.8,0,0,0,489.39,284.37Z" fill="#ffe453" stroke="#252137" stroke-miterlimit="10"/><path d="M488.18,302.81c-.43.17-1.7.69-2.32.85a1.43,1.43,0,0,1-1.73-.79c-.39-1,1.26-2.56,2.11-3s1.88-.17,2.71-.84c.49-.4.47-.66.61-1.22a2.26,2.26,0,0,1,1.39-1.69c.83-.33,2-.31,2.18-1.38.16-.84-.52-1.73-1-2.36s-.59-1.19.1-1.55c1.15-.58,2.55.58,3.52,1a11.54,11.54,0,0,0,2.28.94,11.67,11.67,0,0,0,2,0c.76,0,1.55.07,2.32.07a6.12,6.12,0,0,0,2.31-.8,5.17,5.17,0,0,1,2-.21,7.69,7.69,0,0,1,1.08.24c.37.07,1.26-.32,1.35.35s-1.18.72-1.6,1.22a3.4,3.4,0,0,1-1.54,1.15,16.57,16.57,0,0,0-3.77,1.4,12.26,12.26,0,0,1-3,1.93,7.17,7.17,0,0,0-2.65,1c-.75.64-.9,1.76-1.61,2.44a2.18,2.18,0,0,1-2.4.17c-.63-.24-1.07-.55-1.63-.1A11.54,11.54,0,0,1,488.18,302.81Z" fill="#97d2b1" stroke="#252137" stroke-miterlimit="10"/><path d="M504,278.58v0a13.32,13.32,0,0,0-.39,1.37,1.9,1.9,0,0,1-.75,1.09,10.32,10.32,0,0,1-2.48,1.58,14.66,14.66,0,0,1-2,.68,3.38,3.38,0,0,0-1.49,1,6.15,6.15,0,0,0-1.64,2.68c-.17.62.13,1.15.88,1a7.64,7.64,0,0,0,1.31-.59,2.5,2.5,0,0,1,1.27-.12,3.1,3.1,0,0,1,1.32.28c.31.2.47.6.75.84a1.66,1.66,0,0,0,2,.28c1-.7,1.07-2.07,2.22-2.61a8.83,8.83,0,0,1,2.33-.51,17.1,17.1,0,0,1,2.58,0c.59,0,1.63-.55,2.17-.12.32.25.46.73.78,1a2,2,0,0,0,1.3.62c1.3,0,1.62-1.19,2.24-2.05.34-.47.88-.59,1.38-.86s.76-.42,1.13-.64A22.73,22.73,0,0,0,504,278.58Z" fill="#97d2b1" stroke="#252137" stroke-miterlimit="10"/><path d="M519.77,318.36a22.8,22.8,0,0,0,6.05-25.29,10.73,10.73,0,0,0-1.3,2.93,7.4,7.4,0,0,1-1,2.33c-.51.59-1.24.92-1.78,1.47a7.88,7.88,0,0,1-1,1.06c-.31.22-.72.28-1,.47a4,4,0,0,0-1.14,1.41,7.06,7.06,0,0,1-.78,1,10.54,10.54,0,0,1-1.39,1,4.94,4.94,0,0,0-.56.64,13.94,13.94,0,0,1-1.49,1.17,6.27,6.27,0,0,1-2.78,1.4A6.57,6.57,0,0,0,508.7,309c-1.71,1.23-3.14,2.95-5,4-1.61.89-3,2-4.74,2.76a8.81,8.81,0,0,1-2.73,1c-.56,0-1-.33-1.53-.35a10.93,10.93,0,0,1-1.52,0,11.59,11.59,0,0,0-1.94-.19,16.6,16.6,0,0,0-2.33-.08,6.32,6.32,0,0,0-1.38.34l0,.06A22.78,22.78,0,0,0,519.77,318.36Z" fill="#f9e06d" stroke="#252137" stroke-miterlimit="10"/><path d="M526.58,307.33a1.22,1.22,0,0,1-.62.36c-.83.17-1-.51-1.51-.85s-1.14.09-1.44.57a9.33,9.33,0,0,0-.91,3.35,2.68,2.68,0,0,1-1.64,2.08c-1.08.56-2.56.24-3.49,1.12a15.22,15.22,0,0,1-2,1.88,8.48,8.48,0,0,1-4,1.32c-1,.08-2.3-.37-2.68.84-.11.35-.5,1.23-.23,1.57.47.6.65.13,1.41.43,1,.4,1,.85,2.11,1a12.35,12.35,0,0,0,3.42-.26c.55-.07,1.13-.08,1.69-.11a24.16,24.16,0,0,0,3-2.28A22.75,22.75,0,0,0,526.58,307.33Z" fill="#6bb28b" stroke="#252137" stroke-miterlimit="10"/><path d="M516.94,282.21a23.12,23.12,0,0,1,3.17,2.47c4.33-2.72,7.39-3.93,8.22-3,1.76,2-7.1,12.76-19.79,24.11s-24.41,18.94-26.17,17c-.83-.93.71-3.83,3.9-7.83a22.52,22.52,0,0,1-2.1-3.43c-6.22,8-9.07,14.62-6.79,17.18,3.72,4.16,19.58-3.95,35.42-18.12s25.68-29,22-33.17C532.48,274.83,525.59,276.92,516.94,282.21Z" fill="#e39ac1" stroke="#252137" stroke-miterlimit="10"/><polygon points="244.59 354.71 231.97 353.12 240.19 341.75 230.32 351.12 229.29 326.12 227.94 351.09 218.28 341.42 226.25 353.03 213.6 354.23 226.21 355.82 217.99 367.19 227.87 357.82 228.89 382.07 230.24 357.86 239.91 367.53 231.94 355.91 244.59 354.71" fill="#8f7ef2"/><path d="M683,248.52c0,47.86-19.59,86.66-43.75,86.66-57.9-3.76-57.86-169.61,0-173.33,24.16,0,43.75,38.8,43.75,86.67Z" fill="none" stroke="#c36eea" stroke-linejoin="round" stroke-width="2" stroke-dasharray="8.09 8.09"/><path d="M639.26,357a38,38,0,0,1-4-.21" fill="none" stroke="#97d2b1" stroke-linejoin="round" stroke-width="2"/><path d="M627.91,355.32c-15.52-4.71-29.1-18.91-38.58-38.92" fill="none" stroke="#97d2b1" stroke-linejoin="round" stroke-width="2" stroke-dasharray="7.51 7.51"/><path d="M587.77,313c-.53-1.21-1-2.44-1.54-3.69" fill="none" stroke="#97d2b1" stroke-linejoin="round" stroke-width="2"/><path d="M654.79,143.23c1.21.52,2.42,1.09,3.61,1.72" fill="none" stroke="#97d2b1" stroke-linejoin="round" stroke-width="2"/><path d="M664.54,148.81c9.52,6.95,17.85,17.71,24.32,31.15" fill="none" stroke="#97d2b1" stroke-linejoin="round" stroke-width="2" stroke-dasharray="7.26 7.26"/><path d="M690.39,183.26c.54,1.21,1.06,2.43,1.57,3.68" fill="none" stroke="#97d2b1" stroke-linejoin="round" stroke-width="2"/><circle cx="599.66" cy="113.9" r="2.3" fill="#ffe453"/><circle cx="574.07" cy="151.32" r="3.95" fill="#f2b06d"/><ellipse cx="202.22" cy="145.61" rx="15.91" ry="29.25" fill="none" stroke="#252137" stroke-miterlimit="10"/><ellipse cx="131.38" cy="212.43" rx="15.36" ry="26.4" transform="translate(-88.61 94.15) rotate(-30)" fill="none" stroke="#252137" stroke-miterlimit="10"/><ellipse cx="266.69" cy="244.27" rx="24.35" ry="14.17" transform="translate(-92.29 200.39) rotate(-35.52)" fill="none" stroke="#252137" stroke-miterlimit="10"/><ellipse cx="473.62" cy="145.61" rx="15.91" ry="29.25" fill="none" stroke="#252137" stroke-miterlimit="10"/><ellipse cx="544.45" cy="212.43" rx="26.4" ry="15.36" transform="translate(88.26 577.73) rotate(-60)" fill="none" stroke="#252137" stroke-miterlimit="10"/><ellipse cx="409.14" cy="244.27" rx="14.17" ry="24.35" transform="translate(-27.37 435.38) rotate(-54.48)" fill="none" stroke="#252137" stroke-miterlimit="10"/><path d="M329.14,329.81a1,1,0,0,1-.24,0,1,1,0,0,1-.6-.52,4.47,4.47,0,0,1,.33-3.2c1.47-3.8,2.05-3.8,2.27-3.8H331l.08,0c.23.07.86.24.05,4.47C330.72,328.64,330,329.81,329.14,329.81Z" fill="#f9e06d"/><path d="M330.9,322.64h0c.35.1.17,2.08-.21,4-.33,1.77-1,2.76-1.57,2.76l-.14,0c-.61-.17-.72-1.41,0-3.23s1.55-3.55,1.92-3.55m0-.75h0c-.4,0-1.06,0-2.62,4a4.68,4.68,0,0,0-.31,3.51,1.32,1.32,0,0,0,.83.71,1.27,1.27,0,0,0,.34.05c1.06,0,1.9-1.23,2.31-3.37.87-4.56.15-4.77-.32-4.9l-.1,0Z" fill="#252137"/><path d="M303.32,341.64c-.07-.06-7.06-6.54-13.12-8.31l-3.06-.9,3.18.16a30.42,30.42,0,0,1,8.38,1.52,23,23,0,0,0,3.94.93,21.66,21.66,0,0,0,2.6.15,24.57,24.57,0,0,0,4.48-.41l1.24-.27-7.38,7.38Z" fill="#7588f6"/><path d="M290.3,333c6.64.34,8.41,1.95,12.29,2.44a22.51,22.51,0,0,0,2.65.16,23.57,23.57,0,0,0,4.56-.43l-6.23,6.23s-7.05-6.58-13.27-8.4M284,331.9l6.11,1.79c6,1.75,12.9,8.16,13,8.23l.53.49.51-.51,6.23-6.23,1.79-1.79-2.48.53a23.65,23.65,0,0,1-4.4.41,19.33,19.33,0,0,1-2.56-.16,22.1,22.1,0,0,1-3.87-.91,30.91,30.91,0,0,0-8.47-1.53L284,331.9Z" fill="#252137"/><path d="M359.76,353.05a24,24,0,0,0-6.27-.7,54.1,54.1,0,0,0-9.26.89l-.35.07-2.38-10.23.92.92a22.81,22.81,0,0,0,5.86,4,21.89,21.89,0,0,0,3.84,1.28,30.53,30.53,0,0,1,7.92,3.11l2.8,1.53Z" fill="#7588f6"/><path d="M342.15,344.26a23.28,23.28,0,0,0,6,4.06c3.56,1.62,5.91,1.17,11.74,4.37a24.4,24.4,0,0,0-6.37-.72,53.77,53.77,0,0,0-9.33.9l-2-8.61m-1.31-2.35.58,2.52,2,8.61.16.71.72-.14a53,53,0,0,1,9.18-.89,23.6,23.6,0,0,1,6.17.69l6.15,1.68L360.22,352a31.05,31.05,0,0,0-8-3.14,22.15,22.15,0,0,1-3.79-1.26,23,23,0,0,1-5.75-3.9l-1.84-1.82Z" fill="#252137"/><path d="M345.58,351.53c-1.86,6.58-13.48,11.45-25.16,8.14s-19-13.55-17.13-20.13,12.2-7,23.88-3.66S347.44,345,345.58,351.53Z" fill="#e28156" stroke="#252137" stroke-miterlimit="10"/><path d="M337.08,338.88c-1.25,4.44-6.46,5.81-12,4.25s-9.22-5.46-8-9.89,7-7.73,12.52-6.17S338.34,334.45,337.08,338.88Z" fill="#f2dc7e" stroke="#252137" stroke-miterlimit="10"/><path d="M330.49,335.3a3,3,0,1,1-5.84-1.66c.53-1.87,2.38-3.43,4-3S331,333.42,330.49,335.3Z" fill="#5946c6" stroke="#252137" stroke-miterlimit="10"/><path d="M346.15,351c-1.26,4.43-11.64,4.34-23.53,1s-20.78-8.73-19.53-13.17,12.19-6.26,24.08-2.88S347.41,346.54,346.15,351Z" fill="#a26eed" stroke="#252137" stroke-miterlimit="10"/><path d="M346.21,349.37a6.2,6.2,0,0,0-.76-2c-4,1.75-12.1,1.09-21.11-1.47S308,339.61,305.59,336a6.22,6.22,0,0,0-1.71,1.33c.84,4.09,9,8.65,19.57,11.64S343.36,352.41,346.21,349.37Z" fill="#f9e06d" stroke="#252137" stroke-miterlimit="10"/><path d="M369.63,321c13.22-14.65,21.37-33,28.38-51.2s12.52-37.23,18.42-56,11.7-37.89,21.91-54.86c7.56-12.34,17.85-21.58,33.13-21a21.07,21.07,0,0,1,15.94,8.59l-.17.11a20.87,20.87,0,0,0-15.82-7.66,31.67,31.67,0,0,0-22.64,9.5A59.52,59.52,0,0,0,440.05,160c-9.93,16.92-15.88,35.79-22.1,54.31-11.54,34-23.4,80.77-48.32,106.7Z" fill="#b7377b"/><path d="M369.63,321c24.18-28,35.87-63.8,47.83-98.19,8.51-23.12,19.89-66.76,46.87-73.12,6.7-1.7,14.43-.9,19.91,3.52l-.13.15c-5.63-4-13-4.41-19.49-2.55-15.79,4.48-24.15,20.32-30.69,34.18-5.72,12.48-10.31,25.42-15,38.35-12.36,34-24.54,70.87-49.34,97.66Z" fill="#b7377b"/><path d="M442.79,161.36c7.82-11.53,22.91-22.7,37.14-15.74a27.33,27.33,0,0,1,5.3,3.3l-.06.08a36.82,36.82,0,0,0-5.52-2.74c-14.71-6-28.23,4-36.86,15.1Z" fill="#b7377b"/><path d="M309.47,325.83c-47.77-36.42-32.84-163.59-89-188.37-35.86-15.83-57.62,22.09-57.62,22.09S185.5,125.4,216,142.23c55.23,30.45,33.14,153.15,85.38,188.68" opacity="0.4" fill="url(#a6085993-a734-4578-86a6-78074945aef8)"/><path d="M162.77,159.47c9.61-13.83,26.34-25.88,43.93-21.54,11.35,2.72,20.93,10.56,27.83,19.77a86.89,86.89,0,0,1,8.83,14.89c14.27,31.45,17.64,66.52,26.3,99.52,4.21,16.44,9.51,33,19.8,46.68a60,60,0,0,0,12,12l-.17.25c-8.58-5.4-15.29-13.33-20.38-22-17.7-31.56-20.13-68.82-28.69-103.23-4.11-16.48-9.12-33.13-19.11-47.05-9.61-13.44-26.42-24.5-43.4-19.32-10.94,3.21-20.05,11.17-26.72,20.23l-.25-.16Z" fill="#6156d6"/><path d="M162.76,159.47c9.07-14.85,25.06-27.73,43.32-26.34,15.09,1,28.49,10.25,37,22.43s13.84,26.24,18.18,40.28c6.88,22.57,11.46,45.67,17.38,68.31,4.48,16.88,9.62,33.9,19.34,48.54a61.23,61.23,0,0,0,11.61,13l-.18.24a58.33,58.33,0,0,1-12.54-12.46c-32.48-44.65-26.07-123.68-60.71-163.65C224.65,137,205.44,130,189,136.9c-10.81,4.43-19.7,12.95-25.95,22.72l-.26-.15Z" fill="#6156d6"/><path d="M262.3,221.55c5.14,29.1,16.59,81.71,37.68,102.41.55.47,1.56,1.29,2.1,1.75.95.75,2,1.34,3,2l0,.09c-25.49-13-38.77-79.13-42.76-106.28Z" fill="#6156d6"/><path d="M417.37,232.74c-10.94-7.82-23.5-9-28.05-2.62a8.75,8.75,0,0,0-1.08,2.08l-.06,0c-11.06,42.9-21.05,81.3-49.29,81.3H337c-28.18,0-38.19-38.21-49.22-81l0,0c2.1,6.58-3.07,16.38-12.77,23.3-10.94,7.82-23.5,9-28.05,2.62a8.67,8.67,0,0,1-1.1-2.14l0,0C260.32,310.59,279.29,372,337,372h1.94c57.81,0,76.72-61.77,91.32-116.17h0C432.15,249.29,427,239.59,417.37,232.74Z" fill="#f490fc" stroke="#252137" stroke-miterlimit="10" opacity="0.5" style="mix-blend-mode:color"/><path d="M306.74,365.21l1.14.56Z" fill="#f490fc" stroke="#252137" stroke-miterlimit="10" opacity="0.5" style="mix-blend-mode:color"/><path d="M308.71,366.16l1.2.53Z" fill="#f490fc" stroke="#252137" stroke-miterlimit="10" opacity="0.5" style="mix-blend-mode:color"/><path d="M310.72,367l1.31.52Z" fill="#f490fc" stroke="#252137" stroke-miterlimit="10" opacity="0.5" style="mix-blend-mode:color"/><path d="M304.79,364.2l1.13.6Z" fill="#f490fc" stroke="#252137" stroke-miterlimit="10" opacity="0.5" style="mix-blend-mode:color"/><path d="M298.75,360.45c.51.36,1,.72,1.56,1.07C299.79,361.17,299.26,360.81,298.75,360.45Z" fill="#f490fc" stroke="#252137" stroke-miterlimit="10" opacity="0.5" style="mix-blend-mode:color"/><path d="M312.78,367.85l1.61.58Z" fill="#f490fc" stroke="#252137" stroke-miterlimit="10" opacity="0.5" style="mix-blend-mode:color"/><path d="M302.87,363.11l1.13.65Z" fill="#f490fc" stroke="#252137" stroke-miterlimit="10" opacity="0.5" style="mix-blend-mode:color"/><path d="M300.94,361.92l1.2.75Z" fill="#f490fc" stroke="#252137" stroke-miterlimit="10" opacity="0.5" style="mix-blend-mode:color"/><path d="M324.69,371l1.37.21Z" fill="#f490fc" stroke="#252137" stroke-miterlimit="10" opacity="0.5" style="mix-blend-mode:color"/><path d="M327.05,371.39c.47.07.94.12,1.41.17C328,371.51,327.52,371.46,327.05,371.39Z" fill="#f490fc" stroke="#252137" stroke-miterlimit="10" opacity="0.5" style="mix-blend-mode:color"/><path d="M329.46,371.67l1.48.13Z" fill="#f490fc" stroke="#252137" stroke-miterlimit="10" opacity="0.5" style="mix-blend-mode:color"/><path d="M314.87,368.6c.71.23,1.42.46,2.14.67C316.29,369.06,315.58,368.83,314.87,368.6Z" fill="#f490fc" stroke="#252137" stroke-miterlimit="10" opacity="0.5" style="mix-blend-mode:color"/><path d="M322.35,370.6l1.37.27Z" fill="#f490fc" stroke="#252137" stroke-miterlimit="10" opacity="0.5" style="mix-blend-mode:color"/><path d="M317.59,369.44c.53.15,1.07.3,1.61.43C318.66,369.74,318.12,369.59,317.59,369.44Z" fill="#f490fc" stroke="#252137" stroke-miterlimit="10" opacity="0.5" style="mix-blend-mode:color"/><path d="M320,370.08l1.41.33Z" fill="#f490fc" stroke="#252137" stroke-miterlimit="10" opacity="0.5" style="mix-blend-mode:color"/><path d="M324.92,310.76l.25.11Z" fill="#f490fc" stroke="#252137" stroke-miterlimit="10" opacity="0.5" style="mix-blend-mode:color"/><path d="M327.13,311.72l.09,0Z" fill="#f490fc" stroke="#252137" stroke-miterlimit="10" opacity="0.5" style="mix-blend-mode:color"/><path d="M331.69,313l.39.07Z" fill="#f490fc" stroke="#252137" stroke-miterlimit="10" opacity="0.5" style="mix-blend-mode:color"/><path d="M329.29,312.43l.32.09Z" fill="#f490fc" stroke="#252137" stroke-miterlimit="10" opacity="0.5" style="mix-blend-mode:color"/><path d="M331.91,371.87c.55,0,1.11.07,1.67.09C333,371.94,332.46,371.91,331.91,371.87Z" fill="#f490fc" stroke="#252137" stroke-miterlimit="10" opacity="0.5" style="mix-blend-mode:color"/><path d="M318.83,306.75l.13.11Z" fill="#f490fc" stroke="#252137" stroke-miterlimit="10" opacity="0.5" style="mix-blend-mode:color"/><path d="M322.74,309.56l.33.2Z" fill="#f490fc" stroke="#252137" stroke-miterlimit="10" opacity="0.5" style="mix-blend-mode:color"/><path d="M320.69,308.2l.29.21Z" fill="#f490fc" stroke="#252137" stroke-miterlimit="10" opacity="0.5" style="mix-blend-mode:color"/><path d="M296.79,359l1.74,1.27Z" fill="#f490fc" stroke="#252137" stroke-miterlimit="10" opacity="0.5" style="mix-blend-mode:color"/><path d="M293.42,356.33l1,.85Z" fill="#f490fc" stroke="#252137" stroke-miterlimit="10" opacity="0.5" style="mix-blend-mode:color"/><path d="M334.25,313.35l.32,0Z" fill="#f490fc" stroke="#252137" stroke-miterlimit="10" opacity="0.5" style="mix-blend-mode:color"/><path d="M291.78,354.89l1,.85Z" fill="#f490fc" stroke="#252137" stroke-miterlimit="10" opacity="0.5" style="mix-blend-mode:color"/><path d="M315.15,303.16l.28.3Z" fill="#f490fc" stroke="#252137" stroke-miterlimit="10" opacity="0.5" style="mix-blend-mode:color"/><path d="M317.19,305.27l-.18-.17Z" fill="#f490fc" stroke="#252137" stroke-miterlimit="10" opacity="0.5" style="mix-blend-mode:color"/><path d="M290.18,353.39l.93.88Z" fill="#f490fc" stroke="#252137" stroke-miterlimit="10" opacity="0.5" style="mix-blend-mode:color"/><path d="M295.09,357.71c.38.31.78.61,1.17.92C295.87,358.32,295.47,358,295.09,357.71Z" fill="#f490fc" stroke="#252137" stroke-miterlimit="10" opacity="0.5" style="mix-blend-mode:color"/><path d="M414.11,307.17c-.21.51-.42,1-.62,1.53C413.69,308.19,413.9,307.68,414.11,307.17Z" fill="#f490fc" stroke="#252137" stroke-miterlimit="10" opacity="0.5" style="mix-blend-mode:color"/><path d="M418.57,295.07c-.18.54-.37,1.09-.56,1.63C418.2,296.16,418.39,295.61,418.57,295.07Z" fill="#f490fc" stroke="#252137" stroke-miterlimit="10" opacity="0.5" style="mix-blend-mode:color"/><path d="M415,304.82c-.18.48-.37,1-.56,1.44C414.65,305.78,414.84,305.3,415,304.82Z" fill="#f490fc" stroke="#252137" stroke-miterlimit="10" opacity="0.5" style="mix-blend-mode:color"/><path d="M416.81,300c-.17.49-.35,1-.53,1.45C416.46,301,416.64,300.53,416.81,300Z" fill="#f490fc" stroke="#252137" stroke-miterlimit="10" opacity="0.5" style="mix-blend-mode:color"/><path d="M415.93,302.44l-.54,1.43Z" fill="#f490fc" stroke="#252137" stroke-miterlimit="10" opacity="0.5" style="mix-blend-mode:color"/><path d="M417.69,297.6l-.54,1.5Z" fill="#f490fc" stroke="#252137" stroke-miterlimit="10" opacity="0.5" style="mix-blend-mode:color"/><path d="M412.22,311.79c-.33.76-.65,1.52-1,2.27C411.57,313.31,411.89,312.55,412.22,311.79Z" fill="#f490fc" stroke="#252137" stroke-miterlimit="10" opacity="0.5" style="mix-blend-mode:color"/><path d="M413.17,309.49l-.87,2.09Z" fill="#f490fc" stroke="#252137" stroke-miterlimit="10" opacity="0.5" style="mix-blend-mode:color"/><path d="M405.53,326c-.23.45-.47.89-.71,1.34C405.06,326.87,405.3,326.43,405.53,326Z" fill="#f490fc" stroke="#252137" stroke-miterlimit="10" opacity="0.5" style="mix-blend-mode:color"/><path d="M406.64,323.84l-.66,1.29Z" fill="#f490fc" stroke="#252137" stroke-miterlimit="10" opacity="0.5" style="mix-blend-mode:color"/><path d="M404.4,328.09l-.88,1.58Z" fill="#f490fc" stroke="#252137" stroke-miterlimit="10" opacity="0.5" style="mix-blend-mode:color"/><path d="M409.86,317.15c-.21.47-.43.93-.64,1.4C409.43,318.08,409.65,317.62,409.86,317.15Z" fill="#f490fc" stroke="#252137" stroke-miterlimit="10" opacity="0.5" style="mix-blend-mode:color"/><path d="M407.73,321.66l-.64,1.28Z" fill="#f490fc" stroke="#252137" stroke-miterlimit="10" opacity="0.5" style="mix-blend-mode:color"/><path d="M410.94,314.75c-.23.52-.46,1-.7,1.56C410.48,315.79,410.71,315.27,410.94,314.75Z" fill="#f490fc" stroke="#252137" stroke-miterlimit="10" opacity="0.5" style="mix-blend-mode:color"/><path d="M408.8,319.43l-.63,1.32Z" fill="#f490fc" stroke="#252137" stroke-miterlimit="10" opacity="0.5" style="mix-blend-mode:color"/><path d="M421.25,287c-.19.62-.39,1.23-.59,1.84C420.86,288.22,421.06,287.61,421.25,287Z" fill="#f490fc" stroke="#252137" stroke-miterlimit="10" opacity="0.5" style="mix-blend-mode:color"/><path d="M427.39,266.25c-.22.77-.44,1.55-.65,2.32C427,267.8,427.17,267,427.39,266.25Z" fill="#f490fc" stroke="#252137" stroke-miterlimit="10" opacity="0.5" style="mix-blend-mode:color"/><path d="M428.07,263.75c-.17.65-.35,1.3-.53,1.94C427.72,265.05,427.9,264.4,428.07,263.75Z" fill="#f490fc" stroke="#252137" stroke-miterlimit="10" opacity="0.5" style="mix-blend-mode:color"/><path d="M419.57,292.13c-.24.72-.48,1.44-.73,2.16C419.09,293.57,419.33,292.85,419.57,292.13Z" fill="#f490fc" stroke="#252137" stroke-miterlimit="10" opacity="0.5" style="mix-blend-mode:color"/><path d="M425.87,271.63l-.6,2.09Z" fill="#f490fc" stroke="#252137" stroke-miterlimit="10" opacity="0.5" style="mix-blend-mode:color"/><path d="M428.76,261.25l-.51,1.84Z" fill="#f490fc" stroke="#252137" stroke-miterlimit="10" opacity="0.5" style="mix-blend-mode:color"/><path d="M430.12,256.19c-.16.63-.33,1.26-.5,1.89C429.79,257.45,430,256.82,430.12,256.19Z" fill="#f490fc" stroke="#252137" stroke-miterlimit="10" opacity="0.5" style="mix-blend-mode:color"/><path d="M429.43,258.76c-.16.6-.32,1.21-.49,1.82C429.11,260,429.27,259.36,429.43,258.76Z" fill="#f490fc" stroke="#252137" stroke-miterlimit="10" opacity="0.5" style="mix-blend-mode:color"/><path d="M426.69,268.74c-.24.84-.47,1.68-.71,2.52C426.22,270.42,426.45,269.58,426.69,268.74Z" fill="#f490fc" stroke="#252137" stroke-miterlimit="10" opacity="0.5" style="mix-blend-mode:color"/><path d="M422,284.54l-.51,1.59Z" fill="#f490fc" stroke="#252137" stroke-miterlimit="10" opacity="0.5" style="mix-blend-mode:color"/><path d="M334.4,372c.85,0,1.69,0,2.55,0C336.09,372,335.25,372,334.4,372Z" fill="#f490fc" stroke="#252137" stroke-miterlimit="10" opacity="0.5" style="mix-blend-mode:color"/><path d="M420.47,289.43l-.81,2.45Z" fill="#f490fc" stroke="#252137" stroke-miterlimit="10" opacity="0.5" style="mix-blend-mode:color"/><path d="M423.54,279.6c-.15.5-.3,1-.46,1.5C423.24,280.6,423.39,280.1,423.54,279.6Z" fill="#f490fc" stroke="#252137" stroke-miterlimit="10" opacity="0.5" style="mix-blend-mode:color"/><path d="M424.29,277.06c-.15.53-.31,1.05-.46,1.57C424,278.11,424.14,277.59,424.29,277.06Z" fill="#f490fc" stroke="#252137" stroke-miterlimit="10" opacity="0.5" style="mix-blend-mode:color"/><path d="M422.79,282.07c-.16.51-.31,1-.47,1.53C422.48,283.09,422.63,282.58,422.79,282.07Z" fill="#f490fc" stroke="#252137" stroke-miterlimit="10" opacity="0.5" style="mix-blend-mode:color"/><path d="M425.06,274.45l-.51,1.73Z" fill="#f490fc" stroke="#252137" stroke-miterlimit="10" opacity="0.5" style="mix-blend-mode:color"/><path d="M310.28,296.75l.12.18Z" fill="#f490fc" stroke="#252137" stroke-miterlimit="10" opacity="0.5" style="mix-blend-mode:color"/><path d="M263.68,311.92c-.32-.75-.64-1.51-.95-2.28C263,310.41,263.36,311.17,263.68,311.92Z" fill="#f490fc" stroke="#252137" stroke-miterlimit="10" opacity="0.5" style="mix-blend-mode:color"/><path d="M262.63,309.41l-.84-2.08Z" fill="#f490fc" stroke="#252137" stroke-miterlimit="10" opacity="0.5" style="mix-blend-mode:color"/><path d="M261.47,306.51c-.2-.5-.4-1-.59-1.52C261.07,305.5,261.27,306,261.47,306.51Z" fill="#f490fc" stroke="#252137" stroke-miterlimit="10" opacity="0.5" style="mix-blend-mode:color"/><path d="M264.65,314.19l-.66-1.53Z" fill="#f490fc" stroke="#252137" stroke-miterlimit="10" opacity="0.5" style="mix-blend-mode:color"/><path d="M268.81,323.08l-.63-1.28Z" fill="#f490fc" stroke="#252137" stroke-miterlimit="10" opacity="0.5" style="mix-blend-mode:color"/><path d="M265.65,316.44c-.2-.45-.41-.91-.61-1.37C265.24,315.53,265.45,316,265.65,316.44Z" fill="#f490fc" stroke="#252137" stroke-miterlimit="10" opacity="0.5" style="mix-blend-mode:color"/><path d="M266.68,318.67c-.21-.43-.41-.87-.61-1.31C266.27,317.8,266.47,318.24,266.68,318.67Z" fill="#f490fc" stroke="#252137" stroke-miterlimit="10" opacity="0.5" style="mix-blend-mode:color"/><path d="M267.73,320.88c-.21-.42-.41-.85-.61-1.28C267.32,320,267.52,320.46,267.73,320.88Z" fill="#f490fc" stroke="#252137" stroke-miterlimit="10" opacity="0.5" style="mix-blend-mode:color"/><path d="M256.23,292c-.2-.59-.39-1.18-.58-1.77C255.84,290.86,256,291.45,256.23,292Z" fill="#f490fc" stroke="#252137" stroke-miterlimit="10" opacity="0.5" style="mix-blend-mode:color"/><path d="M257.05,294.45l-.51-1.5Z" fill="#f490fc" stroke="#252137" stroke-miterlimit="10" opacity="0.5" style="mix-blend-mode:color"/><path d="M255.43,289.62l-.78-2.41Z" fill="#f490fc" stroke="#252137" stroke-miterlimit="10" opacity="0.5" style="mix-blend-mode:color"/><path d="M257.88,296.86c-.16-.48-.33-.95-.49-1.43C257.55,295.91,257.72,296.38,257.88,296.86Z" fill="#f490fc" stroke="#252137" stroke-miterlimit="10" opacity="0.5" style="mix-blend-mode:color"/><path d="M259.61,301.64c-.17-.45-.34-.91-.5-1.37C259.27,300.73,259.44,301.19,259.61,301.64Z" fill="#f490fc" stroke="#252137" stroke-miterlimit="10" opacity="0.5" style="mix-blend-mode:color"/><path d="M258.73,299.25l-.49-1.38Z" fill="#f490fc" stroke="#252137" stroke-miterlimit="10" opacity="0.5" style="mix-blend-mode:color"/><path d="M254.43,286.51c-.18-.58-.37-1.16-.55-1.74C254.06,285.35,254.25,285.93,254.43,286.51Z" fill="#f490fc" stroke="#252137" stroke-miterlimit="10" opacity="0.5" style="mix-blend-mode:color"/><path d="M260.52,304.05l-.54-1.41Z" fill="#f490fc" stroke="#252137" stroke-miterlimit="10" opacity="0.5" style="mix-blend-mode:color"/><path d="M283.32,346c-.4-.48-.79-1-1.17-1.46C282.53,345,282.92,345.47,283.32,346Z" fill="#f490fc" stroke="#252137" stroke-miterlimit="10" opacity="0.5" style="mix-blend-mode:color"/><path d="M281.66,343.86c-.3-.38-.6-.77-.89-1.16C281.06,343.09,281.36,343.48,281.66,343.86Z" fill="#f490fc" stroke="#252137" stroke-miterlimit="10" opacity="0.5" style="mix-blend-mode:color"/><path d="M280.23,342c-.27-.36-.54-.73-.8-1.1C279.69,341.24,280,341.61,280.23,342Z" fill="#f490fc" stroke="#252137" stroke-miterlimit="10" opacity="0.5" style="mix-blend-mode:color"/><path d="M285,347.93c-.49-.56-1-1.12-1.44-1.69C284,346.81,284.5,347.37,285,347.93Z" fill="#f490fc" stroke="#252137" stroke-miterlimit="10" opacity="0.5" style="mix-blend-mode:color"/><path d="M269.94,325.29c-.23-.44-.46-.88-.68-1.33C269.48,324.41,269.71,324.85,269.94,325.29Z" fill="#f490fc" stroke="#252137" stroke-miterlimit="10" opacity="0.5" style="mix-blend-mode:color"/><path d="M286.46,349.58c-.35-.38-.69-.77-1-1.16C285.77,348.81,286.11,349.2,286.46,349.58Z" fill="#f490fc" stroke="#252137" stroke-miterlimit="10" opacity="0.5" style="mix-blend-mode:color"/><path d="M288,351.19l-.94-1Z" fill="#f490fc" stroke="#252137" stroke-miterlimit="10" opacity="0.5" style="mix-blend-mode:color"/><path d="M289.52,352.75c-.31-.3-.62-.61-.92-.92C288.9,352.14,289.21,352.45,289.52,352.75Z" fill="#f490fc" stroke="#252137" stroke-miterlimit="10" opacity="0.5" style="mix-blend-mode:color"/><path d="M272.65,330.26c-.39-.68-.77-1.37-1.15-2.06C271.88,328.89,272.26,329.58,272.65,330.26Z" fill="#f490fc" stroke="#252137" stroke-miterlimit="10" opacity="0.5" style="mix-blend-mode:color"/><path d="M273.83,332.29l-.95-1.62Z" fill="#f490fc" stroke="#252137" stroke-miterlimit="10" opacity="0.5" style="mix-blend-mode:color"/><path d="M271.16,327.58l-.8-1.48Z" fill="#f490fc" stroke="#252137" stroke-miterlimit="10" opacity="0.5" style="mix-blend-mode:color"/><path d="M278.87,340.09l-.76-1.1Z" fill="#f490fc" stroke="#252137" stroke-miterlimit="10" opacity="0.5" style="mix-blend-mode:color"/><path d="M275,334.29l-.78-1.29Z" fill="#f490fc" stroke="#252137" stroke-miterlimit="10" opacity="0.5" style="mix-blend-mode:color"/><path d="M277.56,338.18l-.75-1.12Z" fill="#f490fc" stroke="#252137" stroke-miterlimit="10" opacity="0.5" style="mix-blend-mode:color"/><path d="M276.29,336.25c-.26-.39-.5-.78-.75-1.18C275.79,335.47,276,335.86,276.29,336.25Z" fill="#f490fc" stroke="#252137" stroke-miterlimit="10" opacity="0.5" style="mix-blend-mode:color"/><path d="M308.7,294.18c.07.13.15.25.23.38C308.85,294.43,308.77,294.31,308.7,294.18Z" fill="#f490fc" stroke="#252137" stroke-miterlimit="10" opacity="0.5" style="mix-blend-mode:color"/><path d="M299.52,273.59l0,.06Z" fill="#f490fc" stroke="#252137" stroke-miterlimit="10" opacity="0.5" style="mix-blend-mode:color"/><path d="M300.62,276.63l.15.4Z" fill="#f490fc" stroke="#252137" stroke-miterlimit="10" opacity="0.5" style="mix-blend-mode:color"/><path d="M298.3,270l.15.46Z" fill="#f490fc" stroke="#252137" stroke-miterlimit="10" opacity="0.5" style="mix-blend-mode:color"/><path d="M293.91,255.67c0,.15.08.3.13.45C294,256,294,255.82,293.91,255.67Z" fill="#f490fc" stroke="#252137" stroke-miterlimit="10" opacity="0.5" style="mix-blend-mode:color"/><path d="M295,259.49l0,.07Z" fill="#f490fc" stroke="#252137" stroke-miterlimit="10" opacity="0.5" style="mix-blend-mode:color"/><path d="M296,262.85c.05.17.1.34.16.5C296.11,263.19,296.06,263,296,262.85Z" fill="#f490fc" stroke="#252137" stroke-miterlimit="10" opacity="0.5" style="mix-blend-mode:color"/><path d="M301.85,279.82l.2.51Z" fill="#f490fc" stroke="#252137" stroke-miterlimit="10" opacity="0.5" style="mix-blend-mode:color"/><path d="M253.58,283.81c-.15-.49-.3-1-.46-1.49C253.28,282.82,253.43,283.32,253.58,283.81Z" fill="#f490fc" stroke="#252137" stroke-miterlimit="10" opacity="0.5" style="mix-blend-mode:color"/><path d="M403.25,330.15c-.39.69-.79,1.37-1.19,2.05C402.46,331.52,402.86,330.84,403.25,330.15Z" fill="#f490fc" stroke="#252137" stroke-miterlimit="10" opacity="0.5" style="mix-blend-mode:color"/><path d="M313.4,301.1a4,4,0,0,1,.26.32A4,4,0,0,0,313.4,301.1Z" fill="#f490fc" stroke="#252137" stroke-miterlimit="10" opacity="0.5" style="mix-blend-mode:color"/><path d="M311.8,299l.15.21Z" fill="#f490fc" stroke="#252137" stroke-miterlimit="10" opacity="0.5" style="mix-blend-mode:color"/><path d="M304.53,286.12a1,1,0,0,0,.07.15A1,1,0,0,1,304.53,286.12Z" fill="#f490fc" stroke="#252137" stroke-miterlimit="10" opacity="0.5" style="mix-blend-mode:color"/><path d="M303.16,283l.18.43Z" fill="#f490fc" stroke="#252137" stroke-miterlimit="10" opacity="0.5" style="mix-blend-mode:color"/><path d="M305.81,288.8l.15.31Z" fill="#f490fc" stroke="#252137" stroke-miterlimit="10" opacity="0.5" style="mix-blend-mode:color"/><path d="M307.2,291.51c.07.14.15.28.23.42C307.35,291.79,307.27,291.65,307.2,291.51Z" fill="#f490fc" stroke="#252137" stroke-miterlimit="10" opacity="0.5" style="mix-blend-mode:color"/><path d="M297.13,266.44l.18.58Z" fill="#f490fc" stroke="#252137" stroke-miterlimit="10" opacity="0.5" style="mix-blend-mode:color"/><path d="M247.61,263.21l-.42-1.55Z" fill="#f490fc" stroke="#252137" stroke-miterlimit="10" opacity="0.5" style="mix-blend-mode:color"/><path d="M249.9,271.42c-.14-.52-.29-1-.43-1.55C249.61,270.39,249.76,270.9,249.9,271.42Z" fill="#f490fc" stroke="#252137" stroke-miterlimit="10" opacity="0.5" style="mix-blend-mode:color"/><path d="M248.51,266.46l-.66-2.37Z" fill="#f490fc" stroke="#252137" stroke-miterlimit="10" opacity="0.5" style="mix-blend-mode:color"/><path d="M249.21,269c-.2-.69-.39-1.38-.58-2.06C248.82,267.58,249,268.27,249.21,269Z" fill="#f490fc" stroke="#252137" stroke-miterlimit="10" opacity="0.5" style="mix-blend-mode:color"/><path d="M292.81,251.76c.06.2.12.4.17.61C292.93,252.16,292.87,252,292.81,251.76Z" fill="#f490fc" stroke="#252137" stroke-miterlimit="10" opacity="0.5" style="mix-blend-mode:color"/><path d="M252.8,281.27l-.42-1.39Z" fill="#f490fc" stroke="#252137" stroke-miterlimit="10" opacity="0.5" style="mix-blend-mode:color"/><path d="M252.05,278.79c-.13-.46-.27-.93-.41-1.4C251.78,277.86,251.92,278.33,252.05,278.79Z" fill="#f490fc" stroke="#252137" stroke-miterlimit="10" opacity="0.5" style="mix-blend-mode:color"/><path d="M250.61,273.86l-.42-1.43Z" fill="#f490fc" stroke="#252137" stroke-miterlimit="10" opacity="0.5" style="mix-blend-mode:color"/><path d="M290.79,244.22c0,.06,0,.12,0,.18S290.8,244.28,290.79,244.22Z" fill="#f490fc" stroke="#252137" stroke-miterlimit="10" opacity="0.5" style="mix-blend-mode:color"/><path d="M291.76,247.87l.15.57Z" fill="#f490fc" stroke="#252137" stroke-miterlimit="10" opacity="0.5" style="mix-blend-mode:color"/><path d="M289.76,240.3l.09.36Z" fill="#f490fc" stroke="#252137" stroke-miterlimit="10" opacity="0.5" style="mix-blend-mode:color"/><path d="M246.21,258.06l-.33-1.25Z" fill="#f490fc" stroke="#252137" stroke-miterlimit="10" opacity="0.5" style="mix-blend-mode:color"/><path d="M288.67,236.11c.05.22.11.43.17.65C288.78,236.54,288.72,236.33,288.67,236.11Z" fill="#f490fc" stroke="#252137" stroke-miterlimit="10" opacity="0.5" style="mix-blend-mode:color"/><path d="M246.89,260.55l-.36-1.32Z" fill="#f490fc" stroke="#252137" stroke-miterlimit="10" opacity="0.5" style="mix-blend-mode:color"/><path d="M251.33,276.35l-.42-1.43Z" fill="#f490fc" stroke="#252137" stroke-miterlimit="10" opacity="0.5" style="mix-blend-mode:color"/><path d="M369.14,365.19l-1.15.56Z" fill="#f490fc" stroke="#252137" stroke-miterlimit="10" opacity="0.5" style="mix-blend-mode:color"/><path d="M367.17,294.12l-.21.35Z" fill="#f490fc" stroke="#252137" stroke-miterlimit="10" opacity="0.5" style="mix-blend-mode:color"/><path d="M371.09,364.17l-1.14.61Z" fill="#f490fc" stroke="#252137" stroke-miterlimit="10" opacity="0.5" style="mix-blend-mode:color"/><path d="M365.58,296.71l-.06.09Z" fill="#f490fc" stroke="#252137" stroke-miterlimit="10" opacity="0.5" style="mix-blend-mode:color"/><path d="M373,363.06l-1.16.68Z" fill="#f490fc" stroke="#252137" stroke-miterlimit="10" opacity="0.5" style="mix-blend-mode:color"/><path d="M371.35,286v0Z" fill="#f490fc" stroke="#252137" stroke-miterlimit="10" opacity="0.5" style="mix-blend-mode:color"/><path d="M370.09,288.67c-.06.12-.12.24-.17.36C370,288.91,370,288.79,370.09,288.67Z" fill="#f490fc" stroke="#252137" stroke-miterlimit="10" opacity="0.5" style="mix-blend-mode:color"/><path d="M363.09,367.84c-.5.19-1,.37-1.51.54C362.09,368.21,362.59,368,363.09,367.84Z" fill="#f490fc" stroke="#252137" stroke-miterlimit="10" opacity="0.5" style="mix-blend-mode:color"/><path d="M365.15,367l-1.28.51Z" fill="#f490fc" stroke="#252137" stroke-miterlimit="10" opacity="0.5" style="mix-blend-mode:color"/><path d="M364.1,298.88l-.18.26Z" fill="#f490fc" stroke="#252137" stroke-miterlimit="10" opacity="0.5" style="mix-blend-mode:color"/><path d="M368.68,291.42l-.23.43Z" fill="#f490fc" stroke="#252137" stroke-miterlimit="10" opacity="0.5" style="mix-blend-mode:color"/><path d="M367.16,366.14l-1.19.53Z" fill="#f490fc" stroke="#252137" stroke-miterlimit="10" opacity="0.5" style="mix-blend-mode:color"/><path d="M382.47,356.28c-.33.29-.67.56-1,.84C381.8,356.84,382.14,356.57,382.47,356.28Z" fill="#f490fc" stroke="#252137" stroke-miterlimit="10" opacity="0.5" style="mix-blend-mode:color"/><path d="M358.86,305.07l-.15.14Z" fill="#f490fc" stroke="#252137" stroke-miterlimit="10" opacity="0.5" style="mix-blend-mode:color"/><path d="M384.11,354.83l-1,.86Z" fill="#f490fc" stroke="#252137" stroke-miterlimit="10" opacity="0.5" style="mix-blend-mode:color"/><path d="M375,361.83c-.42.28-.85.55-1.28.81C374.17,362.38,374.6,362.11,375,361.83Z" fill="#f490fc" stroke="#252137" stroke-miterlimit="10" opacity="0.5" style="mix-blend-mode:color"/><path d="M357.06,306.7l-.16.14Z" fill="#f490fc" stroke="#252137" stroke-miterlimit="10" opacity="0.5" style="mix-blend-mode:color"/><path d="M380.8,357.67l-1.11.87Z" fill="#f490fc" stroke="#252137" stroke-miterlimit="10" opacity="0.5" style="mix-blend-mode:color"/><path d="M360.71,303.13c-.08.1-.17.19-.26.29C360.54,303.32,360.63,303.23,360.71,303.13Z" fill="#f490fc" stroke="#252137" stroke-miterlimit="10" opacity="0.5" style="mix-blend-mode:color"/><path d="M362.47,301.05l-.26.33Z" fill="#f490fc" stroke="#252137" stroke-miterlimit="10" opacity="0.5" style="mix-blend-mode:color"/><path d="M377.35,360.28c-.59.41-1.19.81-1.79,1.21C376.16,361.09,376.76,360.69,377.35,360.28Z" fill="#f490fc" stroke="#252137" stroke-miterlimit="10" opacity="0.5" style="mix-blend-mode:color"/><path d="M379.09,359c-.48.37-1,.72-1.46,1.07C378.12,359.72,378.61,359.37,379.09,359Z" fill="#f490fc" stroke="#252137" stroke-miterlimit="10" opacity="0.5" style="mix-blend-mode:color"/><path d="M382,255.53a2.17,2.17,0,0,0-.07.24A2.17,2.17,0,0,1,382,255.53Z" fill="#f490fc" stroke="#252137" stroke-miterlimit="10" opacity="0.5" style="mix-blend-mode:color"/><path d="M385.15,243.83l-.09.36Z" fill="#f490fc" stroke="#252137" stroke-miterlimit="10" opacity="0.5" style="mix-blend-mode:color"/><path d="M378.75,266.3c-.06.18-.11.35-.17.52C378.64,266.65,378.69,266.48,378.75,266.3Z" fill="#f490fc" stroke="#252137" stroke-miterlimit="10" opacity="0.5" style="mix-blend-mode:color"/><path d="M387.19,236c0,.11-.05.22-.08.33C387.14,236.23,387.16,236.12,387.19,236Z" fill="#f490fc" stroke="#252137" stroke-miterlimit="10" opacity="0.5" style="mix-blend-mode:color"/><path d="M341.43,372c-.84,0-1.69,0-2.54,0C339.74,372,340.59,372,341.43,372Z" fill="#f490fc" stroke="#252137" stroke-miterlimit="10" opacity="0.5" style="mix-blend-mode:color"/><path d="M377.57,269.93c0,.11-.07.22-.11.33C377.5,270.15,377.54,270,377.57,269.93Z" fill="#f490fc" stroke="#252137" stroke-miterlimit="10" opacity="0.5" style="mix-blend-mode:color"/><path d="M385.72,353.33l-.94.89Z" fill="#f490fc" stroke="#252137" stroke-miterlimit="10" opacity="0.5" style="mix-blend-mode:color"/><path d="M383.06,251.6c0,.17-.09.34-.13.5C383,251.94,383,251.77,383.06,251.6Z" fill="#f490fc" stroke="#252137" stroke-miterlimit="10" opacity="0.5" style="mix-blend-mode:color"/><path d="M380.94,259.11l-.09.29Z" fill="#f490fc" stroke="#252137" stroke-miterlimit="10" opacity="0.5" style="mix-blend-mode:color"/><path d="M379.88,262.65c-.05.18-.11.36-.16.54C379.77,263,379.83,262.83,379.88,262.65Z" fill="#f490fc" stroke="#252137" stroke-miterlimit="10" opacity="0.5" style="mix-blend-mode:color"/><path d="M361,368.59c-.7.24-1.42.46-2.14.68C359.57,369.05,360.29,368.83,361,368.59Z" fill="#f490fc" stroke="#252137" stroke-miterlimit="10" opacity="0.5" style="mix-blend-mode:color"/><path d="M343.93,371.87c-.55,0-1.11.06-1.67.09C342.82,371.93,343.38,371.91,343.93,371.87Z" fill="#f490fc" stroke="#252137" stroke-miterlimit="10" opacity="0.5" style="mix-blend-mode:color"/><path d="M374,279.71c-.06.17-.13.33-.2.49C373.9,280,374,279.88,374,279.71Z" fill="#f490fc" stroke="#252137" stroke-miterlimit="10" opacity="0.5" style="mix-blend-mode:color"/><path d="M355.86,370.06c-.47.12-.95.24-1.43.34C354.91,370.3,355.39,370.18,355.86,370.06Z" fill="#f490fc" stroke="#252137" stroke-miterlimit="10" opacity="0.5" style="mix-blend-mode:color"/><path d="M372.72,282.92l-.16.37Z" fill="#f490fc" stroke="#252137" stroke-miterlimit="10" opacity="0.5" style="mix-blend-mode:color"/><path d="M353.51,370.59q-.67.15-1.38.27Q352.84,370.74,353.51,370.59Z" fill="#f490fc" stroke="#252137" stroke-miterlimit="10" opacity="0.5" style="mix-blend-mode:color"/><path d="M358.39,369.39c-.57.17-1.15.33-1.73.48C357.24,369.72,357.82,369.56,358.39,369.39Z" fill="#f490fc" stroke="#252137" stroke-miterlimit="10" opacity="0.5" style="mix-blend-mode:color"/><path d="M346.39,371.67l-1.5.13Z" fill="#f490fc" stroke="#252137" stroke-miterlimit="10" opacity="0.5" style="mix-blend-mode:color"/><path d="M351.17,371l-1.38.22Z" fill="#f490fc" stroke="#252137" stroke-miterlimit="10" opacity="0.5" style="mix-blend-mode:color"/><path d="M376.41,273.31a.84.84,0,0,1-.05.17A.84.84,0,0,0,376.41,273.31Z" fill="#f490fc" stroke="#252137" stroke-miterlimit="10" opacity="0.5" style="mix-blend-mode:color"/><path d="M348.8,371.39l-1.42.17Z" fill="#f490fc" stroke="#252137" stroke-miterlimit="10" opacity="0.5" style="mix-blend-mode:color"/><path d="M375.28,276.46c-.06.15-.12.31-.17.46C375.16,276.77,375.22,276.61,375.28,276.46Z" fill="#f490fc" stroke="#252137" stroke-miterlimit="10" opacity="0.5" style="mix-blend-mode:color"/><path d="M384.14,247.66c-.06.18-.11.37-.16.56C384,248,384.08,247.84,384.14,247.66Z" fill="#f490fc" stroke="#252137" stroke-miterlimit="10" opacity="0.5" style="mix-blend-mode:color"/><path d="M344.16,313l-.39.07Z" fill="#f490fc" stroke="#252137" stroke-miterlimit="10" opacity="0.5" style="mix-blend-mode:color"/><path d="M353.12,309.55l-.33.19Z" fill="#f490fc" stroke="#252137" stroke-miterlimit="10" opacity="0.5" style="mix-blend-mode:color"/><path d="M348.74,311.7l-.11.05Z" fill="#f490fc" stroke="#252137" stroke-miterlimit="10" opacity="0.5" style="mix-blend-mode:color"/><path d="M400.4,334.91l-.79,1.26Z" fill="#f490fc" stroke="#252137" stroke-miterlimit="10" opacity="0.5" style="mix-blend-mode:color"/><path d="M396.47,340.78l-.79,1.1Z" fill="#f490fc" stroke="#252137" stroke-miterlimit="10" opacity="0.5" style="mix-blend-mode:color"/><path d="M388.92,350.07l-1,1.07Z" fill="#f490fc" stroke="#252137" stroke-miterlimit="10" opacity="0.5" style="mix-blend-mode:color"/><path d="M390.75,348c-.44.5-.88,1-1.33,1.49C389.87,349,390.31,348.54,390.75,348Z" fill="#f490fc" stroke="#252137" stroke-miterlimit="10" opacity="0.5" style="mix-blend-mode:color"/><path d="M393.75,344.42c-.32.41-.65.81-1,1.21C393.1,345.23,393.43,344.83,393.75,344.42Z" fill="#f490fc" stroke="#252137" stroke-miterlimit="10" opacity="0.5" style="mix-blend-mode:color"/><path d="M474.47,116.4v-.08c-56.58,0-72.29,61.54-86.29,115.85l.06,0a8.75,8.75,0,0,1,1.08-2.08c4.55-6.37,17.11-5.2,28.05,2.62,9.61,6.85,14.78,16.55,12.83,23.12h0c11.48-42.79,20.29-81,43.25-81h.16c8.79,0,15.91-13.1,15.91-29.25C489.53,130,482.86,117.21,474.47,116.4Z" fill="#9fb1ff" stroke="#252137" stroke-miterlimit="10" opacity="0.5" style="mix-blend-mode:color"/><path d="M399.1,336.94c-.25.39-.51.78-.77,1.16C398.59,337.72,398.85,337.33,399.1,336.94Z" fill="#f490fc" stroke="#252137" stroke-miterlimit="10" opacity="0.5" style="mix-blend-mode:color"/><path d="M350.93,310.75l-.23.11Z" fill="#f490fc" stroke="#252137" stroke-miterlimit="10" opacity="0.5" style="mix-blend-mode:color"/><path d="M392.34,346.17c-.48.57-.95,1.14-1.44,1.7C391.39,347.31,391.86,346.74,392.34,346.17Z" fill="#f490fc" stroke="#252137" stroke-miterlimit="10" opacity="0.5" style="mix-blend-mode:color"/><path d="M355.17,308.18l-.29.22Z" fill="#f490fc" stroke="#252137" stroke-miterlimit="10" opacity="0.5" style="mix-blend-mode:color"/><path d="M341.59,313.35l-.32,0Z" fill="#f490fc" stroke="#252137" stroke-miterlimit="10" opacity="0.5" style="mix-blend-mode:color"/><path d="M401.77,332.67c-.3.51-.61,1-.92,1.53C401.16,333.69,401.47,333.18,401.77,332.67Z" fill="#f490fc" stroke="#252137" stroke-miterlimit="10" opacity="0.5" style="mix-blend-mode:color"/><path d="M395.12,342.62l-.84,1.11Z" fill="#f490fc" stroke="#252137" stroke-miterlimit="10" opacity="0.5" style="mix-blend-mode:color"/><path d="M346.56,312.42l-.33.1Z" fill="#f490fc" stroke="#252137" stroke-miterlimit="10" opacity="0.5" style="mix-blend-mode:color"/><path d="M387.31,351.75c-.31.32-.62.64-.94.95C386.69,352.39,387,352.07,387.31,351.75Z" fill="#f490fc" stroke="#252137" stroke-miterlimit="10" opacity="0.5" style="mix-blend-mode:color"/><path d="M397.8,338.89,397,340Z" fill="#f490fc" stroke="#252137" stroke-miterlimit="10" opacity="0.5" style="mix-blend-mode:color"/><path d="M288.84,236.76c.3,1.18.61,2.36.92,3.54C289.45,239.12,289.14,237.94,288.84,236.76Z" fill="#f490fc" stroke="#252137" stroke-miterlimit="10" opacity="0.5" style="mix-blend-mode:color"/><path d="M376.36,273.48c-.36,1-.72,2-1.08,3C375.64,275.48,376,274.49,376.36,273.48Z" fill="#f490fc" stroke="#252137" stroke-miterlimit="10" opacity="0.5" style="mix-blend-mode:color"/><path d="M287.73,232.48h0c.31,1.21.63,2.42.94,3.63C288.36,234.9,288,233.69,287.73,232.48Z" fill="#f490fc" stroke="#252137" stroke-miterlimit="10" opacity="0.5" style="mix-blend-mode:color"/><path d="M245.74,256.3c0,.17.09.34.14.51,0-.17-.1-.34-.14-.51Z" fill="#f490fc" stroke="#252137" stroke-miterlimit="10" opacity="0.5" style="mix-blend-mode:color"/><path d="M247.85,264.09l-.24-.88Z" fill="#f490fc" stroke="#252137" stroke-miterlimit="10" opacity="0.5" style="mix-blend-mode:color"/><path d="M373.83,280.2c-.36.92-.74,1.83-1.11,2.72C373.09,282,373.47,281.12,373.83,280.2Z" fill="#f490fc" stroke="#252137" stroke-miterlimit="10" opacity="0.5" style="mix-blend-mode:color"/><path d="M280.77,342.7l-.54-.73Z" fill="#f490fc" stroke="#252137" stroke-miterlimit="10" opacity="0.5" style="mix-blend-mode:color"/><path d="M346.23,312.52c-.68.18-1.37.34-2.07.47C344.86,312.86,345.55,312.7,346.23,312.52Z" fill="#f490fc" stroke="#252137" stroke-miterlimit="10" opacity="0.5" style="mix-blend-mode:color"/><path d="M248.63,266.9l-.12-.44Z" fill="#f490fc" stroke="#252137" stroke-miterlimit="10" opacity="0.5" style="mix-blend-mode:color"/><path d="M282.15,344.49l-.49-.63Z" fill="#f490fc" stroke="#252137" stroke-miterlimit="10" opacity="0.5" style="mix-blend-mode:color"/><path d="M343.77,313.06c-.72.12-1.44.22-2.18.29C342.33,313.28,343.05,313.18,343.77,313.06Z" fill="#f490fc" stroke="#252137" stroke-miterlimit="10" opacity="0.5" style="mix-blend-mode:color"/><path d="M246.53,259.23c-.11-.39-.21-.78-.32-1.17C246.32,258.45,246.42,258.84,246.53,259.23Z" fill="#f490fc" stroke="#252137" stroke-miterlimit="10" opacity="0.5" style="mix-blend-mode:color"/><path d="M247.19,261.66l-.3-1.11Z" fill="#f490fc" stroke="#252137" stroke-miterlimit="10" opacity="0.5" style="mix-blend-mode:color"/><path d="M268.18,321.8l-.45-.92Z" fill="#f490fc" stroke="#252137" stroke-miterlimit="10" opacity="0.5" style="mix-blend-mode:color"/><path d="M290.18,353.39l-.66-.64Z" fill="#f490fc" stroke="#252137" stroke-miterlimit="10" opacity="0.5" style="mix-blend-mode:color"/><path d="M380.85,259.4c-.32,1.09-.64,2.17-1,3.25C380.21,261.57,380.53,260.49,380.85,259.4Z" fill="#f490fc" stroke="#252137" stroke-miterlimit="10" opacity="0.5" style="mix-blend-mode:color"/><path d="M296.17,263.35q.46,1.56,1,3.09Q296.64,264.91,296.17,263.35Z" fill="#f490fc" stroke="#252137" stroke-miterlimit="10" opacity="0.5" style="mix-blend-mode:color"/><path d="M288.6,351.83l-.63-.64Z" fill="#f490fc" stroke="#252137" stroke-miterlimit="10" opacity="0.5" style="mix-blend-mode:color"/><path d="M379.72,263.19c-.32,1.05-.64,2.09-1,3.11C379.08,265.28,379.4,264.24,379.72,263.19Z" fill="#f490fc" stroke="#252137" stroke-miterlimit="10" opacity="0.5" style="mix-blend-mode:color"/><path d="M294,256.12c.32,1.14.64,2.26,1,3.37C294.68,258.38,294.36,257.26,294,256.12Z" fill="#f490fc" stroke="#252137" stroke-miterlimit="10" opacity="0.5" style="mix-blend-mode:color"/><path d="M295,259.56c.32,1.1.65,2.2,1,3.29C295.68,261.76,295.35,260.66,295,259.56Z" fill="#f490fc" stroke="#252137" stroke-miterlimit="10" opacity="0.5" style="mix-blend-mode:color"/><path d="M381.9,255.77c-.32,1.12-.64,2.24-1,3.34C381.26,258,381.58,256.89,381.9,255.77Z" fill="#f490fc" stroke="#252137" stroke-miterlimit="10" opacity="0.5" style="mix-blend-mode:color"/><path d="M299.54,273.65c.35,1,.72,2,1.08,3C300.26,275.65,299.89,274.66,299.54,273.65Z" fill="#f490fc" stroke="#252137" stroke-miterlimit="10" opacity="0.5" style="mix-blend-mode:color"/><path d="M297.31,267c.33,1,.66,2,1,3C298,269.05,297.64,268,297.31,267Z" fill="#f490fc" stroke="#252137" stroke-miterlimit="10" opacity="0.5" style="mix-blend-mode:color"/><path d="M298.45,270.5c.36,1,.71,2.08,1.07,3.09C299.16,272.58,298.81,271.54,298.45,270.5Z" fill="#f490fc" stroke="#252137" stroke-miterlimit="10" opacity="0.5" style="mix-blend-mode:color"/><path d="M279.43,340.87l-.56-.78Z" fill="#f490fc" stroke="#252137" stroke-miterlimit="10" opacity="0.5" style="mix-blend-mode:color"/><path d="M291.91,248.44l.9,3.32Z" fill="#f490fc" stroke="#252137" stroke-miterlimit="10" opacity="0.5" style="mix-blend-mode:color"/><path d="M285.42,348.42c-.14-.16-.29-.32-.43-.49C285.13,348.1,285.28,348.26,285.42,348.42Z" fill="#f490fc" stroke="#252137" stroke-miterlimit="10" opacity="0.5" style="mix-blend-mode:color"/><path d="M283.55,346.24c-.08-.1-.15-.2-.23-.29C283.4,346,283.47,346.14,283.55,346.24Z" fill="#f490fc" stroke="#252137" stroke-miterlimit="10" opacity="0.5" style="mix-blend-mode:color"/><path d="M290.83,244.4l.93,3.47Z" fill="#f490fc" stroke="#252137" stroke-miterlimit="10" opacity="0.5" style="mix-blend-mode:color"/><path d="M289.85,240.66c.31,1.2.62,2.38.94,3.56C290.47,243,290.16,241.86,289.85,240.66Z" fill="#f490fc" stroke="#252137" stroke-miterlimit="10" opacity="0.5" style="mix-blend-mode:color"/><path d="M377.46,270.26c-.34,1-.69,2.05-1,3.05C376.77,272.31,377.12,271.29,377.46,270.26Z" fill="#f490fc" stroke="#252137" stroke-miterlimit="10" opacity="0.5" style="mix-blend-mode:color"/><path d="M287,350.2l-.57-.62Z" fill="#f490fc" stroke="#252137" stroke-miterlimit="10" opacity="0.5" style="mix-blend-mode:color"/><path d="M378.58,266.82c-.33,1.05-.67,2.09-1,3.11C377.91,268.91,378.25,267.87,378.58,266.82Z" fill="#f490fc" stroke="#252137" stroke-miterlimit="10" opacity="0.5" style="mix-blend-mode:color"/><path d="M387.19,236q.49-1.9,1-3.84h0Q387.69,234.11,387.19,236Z" fill="#f490fc" stroke="#252137" stroke-miterlimit="10" opacity="0.5" style="mix-blend-mode:color"/><path d="M293,252.37q.47,1.66.93,3.3Q293.45,254,293,252.37Z" fill="#f490fc" stroke="#252137" stroke-miterlimit="10" opacity="0.5" style="mix-blend-mode:color"/><path d="M341.27,313.37c-.78.06-1.57.1-2.38.1C339.7,313.47,340.49,313.43,341.27,313.37Z" fill="#f490fc" stroke="#252137" stroke-miterlimit="10" opacity="0.5" style="mix-blend-mode:color"/><path d="M375.11,276.92q-.54,1.41-1.08,2.79Q374.57,278.33,375.11,276.92Z" fill="#f490fc" stroke="#252137" stroke-miterlimit="10" opacity="0.5" style="mix-blend-mode:color"/><path d="M260.88,305l-.36-.94Z" fill="#f490fc" stroke="#252137" stroke-miterlimit="10" opacity="0.5" style="mix-blend-mode:color"/><path d="M271.5,328.2l-.34-.62Z" fill="#f490fc" stroke="#252137" stroke-miterlimit="10" opacity="0.5" style="mix-blend-mode:color"/><path d="M362.21,301.38c-.49.6-1,1.19-1.5,1.75C361.22,302.57,361.72,302,362.21,301.38Z" fill="#f490fc" stroke="#252137" stroke-miterlimit="10" opacity="0.5" style="mix-blend-mode:color"/><path d="M262.73,309.64c0-.08-.07-.16-.1-.23S262.69,309.56,262.73,309.64Z" fill="#f490fc" stroke="#252137" stroke-miterlimit="10" opacity="0.5" style="mix-blend-mode:color"/><path d="M352.79,309.74c-.61.36-1.23.7-1.86,1C351.56,310.44,352.18,310.1,352.79,309.74Z" fill="#f490fc" stroke="#252137" stroke-miterlimit="10" opacity="0.5" style="mix-blend-mode:color"/><path d="M261.79,307.33c-.1-.27-.21-.55-.32-.82C261.58,306.78,261.69,307.06,261.79,307.33Z" fill="#f490fc" stroke="#252137" stroke-miterlimit="10" opacity="0.5" style="mix-blend-mode:color"/><path d="M272.88,330.67c-.07-.14-.15-.27-.23-.41C272.73,330.4,272.81,330.53,272.88,330.67Z" fill="#f490fc" stroke="#252137" stroke-miterlimit="10" opacity="0.5" style="mix-blend-mode:color"/><path d="M260,302.64c-.12-.33-.24-.66-.37-1C259.74,302,259.86,302.31,260,302.64Z" fill="#f490fc" stroke="#252137" stroke-miterlimit="10" opacity="0.5" style="mix-blend-mode:color"/><path d="M258.24,297.87l-.36-1Z" fill="#f490fc" stroke="#252137" stroke-miterlimit="10" opacity="0.5" style="mix-blend-mode:color"/><path d="M363.92,299.14c-.47.65-1,1.29-1.45,1.91C363,300.43,363.45,299.79,363.92,299.14Z" fill="#f490fc" stroke="#252137" stroke-miterlimit="10" opacity="0.5" style="mix-blend-mode:color"/><path d="M259.11,300.27l-.38-1Z" fill="#f490fc" stroke="#252137" stroke-miterlimit="10" opacity="0.5" style="mix-blend-mode:color"/><path d="M354.88,308.4c-.58.4-1.17.79-1.76,1.15C353.71,309.19,354.3,308.8,354.88,308.4Z" fill="#f490fc" stroke="#252137" stroke-miterlimit="10" opacity="0.5" style="mix-blend-mode:color"/><path d="M266.07,317.36l-.42-.92Z" fill="#f490fc" stroke="#252137" stroke-miterlimit="10" opacity="0.5" style="mix-blend-mode:color"/><path d="M358.71,305.21c-.54.52-1.09,1-1.65,1.49C357.62,306.22,358.17,305.73,358.71,305.21Z" fill="#f490fc" stroke="#252137" stroke-miterlimit="10" opacity="0.5" style="mix-blend-mode:color"/><path d="M249.47,269.87c-.09-.3-.18-.61-.26-.91C249.29,269.26,249.38,269.57,249.47,269.87Z" fill="#f490fc" stroke="#252137" stroke-miterlimit="10" opacity="0.5" style="mix-blend-mode:color"/><path d="M267.12,319.6c-.15-.31-.3-.62-.44-.93C266.82,319,267,319.29,267.12,319.6Z" fill="#f490fc" stroke="#252137" stroke-miterlimit="10" opacity="0.5" style="mix-blend-mode:color"/><path d="M356.9,306.84c-.56.47-1.14.91-1.73,1.34C355.76,307.75,356.34,307.31,356.9,306.84Z" fill="#f490fc" stroke="#252137" stroke-miterlimit="10" opacity="0.5" style="mix-blend-mode:color"/><path d="M270.36,326.1l-.42-.81Z" fill="#f490fc" stroke="#252137" stroke-miterlimit="10" opacity="0.5" style="mix-blend-mode:color"/><path d="M264,312.66c-.1-.24-.21-.49-.31-.74C263.78,312.17,263.89,312.42,264,312.66Z" fill="#f490fc" stroke="#252137" stroke-miterlimit="10" opacity="0.5" style="mix-blend-mode:color"/><path d="M360.45,303.42q-.78.85-1.59,1.65Q359.67,304.28,360.45,303.42Z" fill="#f490fc" stroke="#252137" stroke-miterlimit="10" opacity="0.5" style="mix-blend-mode:color"/><path d="M265,315.07l-.39-.88Z" fill="#f490fc" stroke="#252137" stroke-miterlimit="10" opacity="0.5" style="mix-blend-mode:color"/><path d="M365.52,296.8c-.47.72-.94,1.41-1.42,2.08C364.58,298.21,365.05,297.52,365.52,296.8Z" fill="#f490fc" stroke="#252137" stroke-miterlimit="10" opacity="0.5" style="mix-blend-mode:color"/><path d="M269.26,324l-.45-.88Z" fill="#f490fc" stroke="#252137" stroke-miterlimit="10" opacity="0.5" style="mix-blend-mode:color"/><path d="M251.64,277.39c-.1-.34-.21-.69-.31-1C251.43,276.7,251.54,277.05,251.64,277.39Z" fill="#f490fc" stroke="#252137" stroke-miterlimit="10" opacity="0.5" style="mix-blend-mode:color"/><path d="M257.39,295.43c-.12-.33-.23-.65-.34-1C257.16,294.78,257.27,295.1,257.39,295.43Z" fill="#f490fc" stroke="#252137" stroke-miterlimit="10" opacity="0.5" style="mix-blend-mode:color"/><path d="M278.11,339l-.55-.81Z" fill="#f490fc" stroke="#252137" stroke-miterlimit="10" opacity="0.5" style="mix-blend-mode:color"/><path d="M252.38,279.88l-.33-1.09Z" fill="#f490fc" stroke="#252137" stroke-miterlimit="10" opacity="0.5" style="mix-blend-mode:color"/><path d="M369.92,289c-.41.82-.82,1.61-1.24,2.39C369.1,290.64,369.51,289.85,369.92,289Z" fill="#f490fc" stroke="#252137" stroke-miterlimit="10" opacity="0.5" style="mix-blend-mode:color"/><path d="M250.91,274.92l-.3-1.06Z" fill="#f490fc" stroke="#252137" stroke-miterlimit="10" opacity="0.5" style="mix-blend-mode:color"/><path d="M372.56,283.29c-.4.93-.8,1.84-1.21,2.74C371.76,285.13,372.16,284.22,372.56,283.29Z" fill="#f490fc" stroke="#252137" stroke-miterlimit="10" opacity="0.5" style="mix-blend-mode:color"/><path d="M250.19,272.43c-.09-.34-.19-.68-.29-1C250,271.75,250.1,272.09,250.19,272.43Z" fill="#f490fc" stroke="#252137" stroke-miterlimit="10" opacity="0.5" style="mix-blend-mode:color"/><path d="M253.12,282.32c-.1-.35-.21-.7-.32-1.05C252.91,281.62,253,282,253.12,282.32Z" fill="#f490fc" stroke="#252137" stroke-miterlimit="10" opacity="0.5" style="mix-blend-mode:color"/><path d="M371.34,286.05c-.41.89-.83,1.76-1.25,2.62C370.51,287.81,370.93,286.94,371.34,286.05Z" fill="#f490fc" stroke="#252137" stroke-miterlimit="10" opacity="0.5" style="mix-blend-mode:color"/><path d="M348.63,311.75c-.67.25-1.36.47-2.07.67C347.27,312.22,348,312,348.63,311.75Z" fill="#f490fc" stroke="#252137" stroke-miterlimit="10" opacity="0.5" style="mix-blend-mode:color"/><path d="M350.7,310.86c-.64.3-1.29.59-2,.84C349.41,311.45,350.06,311.16,350.7,310.86Z" fill="#f490fc" stroke="#252137" stroke-miterlimit="10" opacity="0.5" style="mix-blend-mode:color"/><path d="M255.65,290.27c-.08-.22-.15-.43-.22-.65C255.5,289.84,255.57,290.05,255.65,290.27Z" fill="#f490fc" stroke="#252137" stroke-miterlimit="10" opacity="0.5" style="mix-blend-mode:color"/><path d="M367,294.47c-.45.76-.91,1.51-1.38,2.24C366.05,296,366.51,295.23,367,294.47Z" fill="#f490fc" stroke="#252137" stroke-miterlimit="10" opacity="0.5" style="mix-blend-mode:color"/><path d="M276.81,337.06l-.52-.81Z" fill="#f490fc" stroke="#252137" stroke-miterlimit="10" opacity="0.5" style="mix-blend-mode:color"/><path d="M256.54,293l-.31-.91Z" fill="#f490fc" stroke="#252137" stroke-miterlimit="10" opacity="0.5" style="mix-blend-mode:color"/><path d="M274.26,333l-.43-.71Z" fill="#f490fc" stroke="#252137" stroke-miterlimit="10" opacity="0.5" style="mix-blend-mode:color"/><path d="M253.88,284.77l-.3-1Z" fill="#f490fc" stroke="#252137" stroke-miterlimit="10" opacity="0.5" style="mix-blend-mode:color"/><path d="M275.54,335.07l-.5-.78Z" fill="#f490fc" stroke="#252137" stroke-miterlimit="10" opacity="0.5" style="mix-blend-mode:color"/><path d="M368.45,291.85c-.42.77-.85,1.53-1.28,2.27C367.6,293.38,368,292.62,368.45,291.85Z" fill="#f490fc" stroke="#252137" stroke-miterlimit="10" opacity="0.5" style="mix-blend-mode:color"/><path d="M254.65,287.21l-.22-.7Z" fill="#f490fc" stroke="#252137" stroke-miterlimit="10" opacity="0.5" style="mix-blend-mode:color"/><path d="M397,340l-.55.78Z" fill="#f490fc" stroke="#252137" stroke-miterlimit="10" opacity="0.5" style="mix-blend-mode:color"/><path d="M420.66,288.83c-.07.2-.13.4-.19.6C420.53,289.23,420.59,289,420.66,288.83Z" fill="#f490fc" stroke="#252137" stroke-miterlimit="10" opacity="0.5" style="mix-blend-mode:color"/><path d="M426,271.26c0,.12-.07.25-.11.37C425.91,271.51,425.94,271.38,426,271.26Z" fill="#f490fc" stroke="#252137" stroke-miterlimit="10" opacity="0.5" style="mix-blend-mode:color"/><path d="M384.78,354.22l-.67.61Z" fill="#f490fc" stroke="#252137" stroke-miterlimit="10" opacity="0.5" style="mix-blend-mode:color"/><path d="M427.54,265.69l-.15.56Z" fill="#f490fc" stroke="#252137" stroke-miterlimit="10" opacity="0.5" style="mix-blend-mode:color"/><path d="M426.74,268.57l-.05.17Z" fill="#f490fc" stroke="#252137" stroke-miterlimit="10" opacity="0.5" style="mix-blend-mode:color"/><path d="M424.55,276.18c-.08.29-.17.59-.26.88C424.38,276.77,424.47,276.47,424.55,276.18Z" fill="#f490fc" stroke="#252137" stroke-miterlimit="10" opacity="0.5" style="mix-blend-mode:color"/><path d="M383.15,355.69l-.68.59Z" fill="#f490fc" stroke="#252137" stroke-miterlimit="10" opacity="0.5" style="mix-blend-mode:color"/><path d="M387.92,351.14l-.61.61Z" fill="#f490fc" stroke="#252137" stroke-miterlimit="10" opacity="0.5" style="mix-blend-mode:color"/><path d="M422.32,283.6c-.1.31-.2.63-.29.94C422.12,284.23,422.22,283.91,422.32,283.6Z" fill="#f490fc" stroke="#252137" stroke-miterlimit="10" opacity="0.5" style="mix-blend-mode:color"/><path d="M421.52,286.13l-.27.86Z" fill="#f490fc" stroke="#252137" stroke-miterlimit="10" opacity="0.5" style="mix-blend-mode:color"/><path d="M423.08,281.1c-.09.33-.19.65-.29,1C422.89,281.75,423,281.43,423.08,281.1Z" fill="#f490fc" stroke="#252137" stroke-miterlimit="10" opacity="0.5" style="mix-blend-mode:color"/><path d="M423.83,278.63c-.1.32-.19.65-.29,1C423.64,279.28,423.73,279,423.83,278.63Z" fill="#f490fc" stroke="#252137" stroke-miterlimit="10" opacity="0.5" style="mix-blend-mode:color"/><path d="M386.37,352.7l-.65.63Z" fill="#f490fc" stroke="#252137" stroke-miterlimit="10" opacity="0.5" style="mix-blend-mode:color"/><path d="M425.27,273.72l-.21.73Z" fill="#f490fc" stroke="#252137" stroke-miterlimit="10" opacity="0.5" style="mix-blend-mode:color"/><path d="M333.58,372l.82,0Z" fill="#f490fc" stroke="#252137" stroke-miterlimit="10" opacity="0.5" style="mix-blend-mode:color"/><path d="M328.46,371.56l1,.11Z" fill="#f490fc" stroke="#252137" stroke-miterlimit="10" opacity="0.5" style="mix-blend-mode:color"/><path d="M330.94,371.8l1,.07Z" fill="#f490fc" stroke="#252137" stroke-miterlimit="10" opacity="0.5" style="mix-blend-mode:color"/><path d="M375.56,361.49l-.54.34Z" fill="#f490fc" stroke="#252137" stroke-miterlimit="10" opacity="0.5" style="mix-blend-mode:color"/><path d="M373.74,362.64l-.71.42Z" fill="#f490fc" stroke="#252137" stroke-miterlimit="10" opacity="0.5" style="mix-blend-mode:color"/><path d="M326.06,371.25l1,.14Z" fill="#f490fc" stroke="#252137" stroke-miterlimit="10" opacity="0.5" style="mix-blend-mode:color"/><path d="M428.25,263.09l-.18.66Z" fill="#f490fc" stroke="#252137" stroke-miterlimit="10" opacity="0.5" style="mix-blend-mode:color"/><path d="M428.94,260.58l-.18.67Z" fill="#f490fc" stroke="#252137" stroke-miterlimit="10" opacity="0.5" style="mix-blend-mode:color"/><path d="M323.72,370.87l1,.17Z" fill="#f490fc" stroke="#252137" stroke-miterlimit="10" opacity="0.5" style="mix-blend-mode:color"/><path d="M381.46,357.12l-.66.55Z" fill="#f490fc" stroke="#252137" stroke-miterlimit="10" opacity="0.5" style="mix-blend-mode:color"/><path d="M379.69,358.54l-.6.46Z" fill="#f490fc" stroke="#252137" stroke-miterlimit="10" opacity="0.5" style="mix-blend-mode:color"/><path d="M429.62,258.08c-.06.22-.12.45-.19.68C429.5,258.53,429.56,258.3,429.62,258.08Z" fill="#f490fc" stroke="#252137" stroke-miterlimit="10" opacity="0.5" style="mix-blend-mode:color"/><path d="M430.21,255.87h0l-.09.32Z" fill="#f490fc" stroke="#252137" stroke-miterlimit="10" opacity="0.5" style="mix-blend-mode:color"/><path d="M377.63,360.07l-.28.21Z" fill="#f490fc" stroke="#252137" stroke-miterlimit="10" opacity="0.5" style="mix-blend-mode:color"/><path d="M410.24,316.31l-.38.84Z" fill="#f490fc" stroke="#252137" stroke-miterlimit="10" opacity="0.5" style="mix-blend-mode:color"/><path d="M408.17,320.75c-.15.31-.3.61-.44.91C407.87,321.36,408,321.06,408.17,320.75Z" fill="#f490fc" stroke="#252137" stroke-miterlimit="10" opacity="0.5" style="mix-blend-mode:color"/><path d="M398.33,338.1l-.53.79Z" fill="#f490fc" stroke="#252137" stroke-miterlimit="10" opacity="0.5" style="mix-blend-mode:color"/><path d="M409.22,318.55l-.42.88Z" fill="#f490fc" stroke="#252137" stroke-miterlimit="10" opacity="0.5" style="mix-blend-mode:color"/><path d="M402.06,332.2c-.09.16-.19.31-.29.47C401.87,332.51,402,332.36,402.06,332.2Z" fill="#f490fc" stroke="#252137" stroke-miterlimit="10" opacity="0.5" style="mix-blend-mode:color"/><path d="M411.24,314.06l-.3.69Z" fill="#f490fc" stroke="#252137" stroke-miterlimit="10" opacity="0.5" style="mix-blend-mode:color"/><path d="M407.09,322.94l-.45.9Z" fill="#f490fc" stroke="#252137" stroke-miterlimit="10" opacity="0.5" style="mix-blend-mode:color"/><path d="M389.42,349.53l-.5.54Z" fill="#f490fc" stroke="#252137" stroke-miterlimit="10" opacity="0.5" style="mix-blend-mode:color"/><path d="M412.3,311.58l-.08.21Z" fill="#f490fc" stroke="#252137" stroke-miterlimit="10" opacity="0.5" style="mix-blend-mode:color"/><path d="M404.82,327.32l-.42.77Z" fill="#f490fc" stroke="#252137" stroke-miterlimit="10" opacity="0.5" style="mix-blend-mode:color"/><path d="M403.52,329.67l-.27.48Z" fill="#f490fc" stroke="#252137" stroke-miterlimit="10" opacity="0.5" style="mix-blend-mode:color"/><path d="M406,325.13l-.45.85Z" fill="#f490fc" stroke="#252137" stroke-miterlimit="10" opacity="0.5" style="mix-blend-mode:color"/><path d="M399.61,336.17l-.51.77Z" fill="#f490fc" stroke="#252137" stroke-miterlimit="10" opacity="0.5" style="mix-blend-mode:color"/><path d="M400.85,334.2l-.45.71Z" fill="#f490fc" stroke="#252137" stroke-miterlimit="10" opacity="0.5" style="mix-blend-mode:color"/><path d="M418,296.7c-.11.3-.22.6-.32.9C417.79,297.3,417.9,297,418,296.7Z" fill="#f490fc" stroke="#252137" stroke-miterlimit="10" opacity="0.5" style="mix-blend-mode:color"/><path d="M390.9,347.87l-.15.17Z" fill="#f490fc" stroke="#252137" stroke-miterlimit="10" opacity="0.5" style="mix-blend-mode:color"/><path d="M417.15,299.1c-.11.31-.22.63-.34.94C416.93,299.73,417,299.41,417.15,299.1Z" fill="#f490fc" stroke="#252137" stroke-miterlimit="10" opacity="0.5" style="mix-blend-mode:color"/><path d="M418.84,294.29l-.27.78Z" fill="#f490fc" stroke="#252137" stroke-miterlimit="10" opacity="0.5" style="mix-blend-mode:color"/><path d="M419.66,291.88l-.09.25Z" fill="#f490fc" stroke="#252137" stroke-miterlimit="10" opacity="0.5" style="mix-blend-mode:color"/><path d="M392.78,345.63l-.44.54Z" fill="#f490fc" stroke="#252137" stroke-miterlimit="10" opacity="0.5" style="mix-blend-mode:color"/><path d="M414.46,306.26c-.12.3-.23.61-.35.91C414.23,306.87,414.34,306.56,414.46,306.26Z" fill="#f490fc" stroke="#252137" stroke-miterlimit="10" opacity="0.5" style="mix-blend-mode:color"/><path d="M395.68,341.88l-.56.74Z" fill="#f490fc" stroke="#252137" stroke-miterlimit="10" opacity="0.5" style="mix-blend-mode:color"/><path d="M413.49,308.7c-.11.27-.21.53-.32.79C413.28,309.23,413.38,309,413.49,308.7Z" fill="#f490fc" stroke="#252137" stroke-miterlimit="10" opacity="0.5" style="mix-blend-mode:color"/><path d="M415.39,303.87c-.12.32-.25.63-.37.95C415.14,304.5,415.27,304.19,415.39,303.87Z" fill="#f490fc" stroke="#252137" stroke-miterlimit="10" opacity="0.5" style="mix-blend-mode:color"/><path d="M394.28,343.73l-.53.69Z" fill="#f490fc" stroke="#252137" stroke-miterlimit="10" opacity="0.5" style="mix-blend-mode:color"/><path d="M416.28,301.49c-.12.32-.24.64-.35.95C416,302.13,416.16,301.81,416.28,301.49Z" fill="#f490fc" stroke="#252137" stroke-miterlimit="10" opacity="0.5" style="mix-blend-mode:color"/><path d="M319,306.86c.56.47,1.14.92,1.73,1.34C320.1,307.78,319.52,307.33,319,306.86Z" fill="#f490fc" stroke="#252137" stroke-miterlimit="10" opacity="0.5" style="mix-blend-mode:color"/><path d="M344.89,371.8l-1,.07Z" fill="#f490fc" stroke="#252137" stroke-miterlimit="10" opacity="0.5" style="mix-blend-mode:color"/><path d="M300.77,277c.35,1,.71,1.87,1.08,2.79C301.48,278.9,301.12,278,300.77,277Z" fill="#f490fc" stroke="#252137" stroke-miterlimit="10" opacity="0.5" style="mix-blend-mode:color"/><path d="M321,308.41c.58.41,1.16.79,1.76,1.15C322.14,309.2,321.56,308.82,321,308.41Z" fill="#f490fc" stroke="#252137" stroke-miterlimit="10" opacity="0.5" style="mix-blend-mode:color"/><path d="M317.19,305.27c.53.51,1.08,1,1.64,1.48C318.27,306.28,317.72,305.78,317.19,305.27Z" fill="#f490fc" stroke="#252137" stroke-miterlimit="10" opacity="0.5" style="mix-blend-mode:color"/><path d="M323.07,309.76c.61.35,1.22.69,1.85,1C324.29,310.45,323.68,310.11,323.07,309.76Z" fill="#f490fc" stroke="#252137" stroke-miterlimit="10" opacity="0.5" style="mix-blend-mode:color"/><path d="M342.26,372l-.83,0Z" fill="#f490fc" stroke="#252137" stroke-miterlimit="10" opacity="0.5" style="mix-blend-mode:color"/><path d="M329.61,312.52c.68.18,1.37.34,2.08.47C331,312.86,330.29,312.7,329.61,312.52Z" fill="#f490fc" stroke="#252137" stroke-miterlimit="10" opacity="0.5" style="mix-blend-mode:color"/><path d="M313.66,301.42c.49.6,1,1.18,1.49,1.74C314.65,302.6,314.15,302,313.66,301.42Z" fill="#f490fc" stroke="#252137" stroke-miterlimit="10" opacity="0.5" style="mix-blend-mode:color"/><path d="M332.08,313.06c.71.12,1.43.22,2.17.29C333.51,313.28,332.79,313.18,332.08,313.06Z" fill="#f490fc" stroke="#252137" stroke-miterlimit="10" opacity="0.5" style="mix-blend-mode:color"/><path d="M349.79,371.25l-1,.14Z" fill="#f490fc" stroke="#252137" stroke-miterlimit="10" opacity="0.5" style="mix-blend-mode:color"/><path d="M327.22,311.75c.67.26,1.37.48,2.07.68C328.59,312.23,327.89,312,327.22,311.75Z" fill="#f490fc" stroke="#252137" stroke-miterlimit="10" opacity="0.5" style="mix-blend-mode:color"/><path d="M347.38,371.56l-1,.11Z" fill="#f490fc" stroke="#252137" stroke-miterlimit="10" opacity="0.5" style="mix-blend-mode:color"/><path d="M325.17,310.87c.64.31,1.3.59,2,.85C326.47,311.46,325.81,311.18,325.17,310.87Z" fill="#f490fc" stroke="#252137" stroke-miterlimit="10" opacity="0.5" style="mix-blend-mode:color"/><path d="M302.05,280.33c.36.91.73,1.8,1.11,2.68C302.78,282.13,302.41,281.24,302.05,280.33Z" fill="#f490fc" stroke="#252137" stroke-miterlimit="10" opacity="0.5" style="mix-blend-mode:color"/><path d="M306,289.11c.4.81.82,1.61,1.24,2.4C306.78,290.72,306.36,289.92,306,289.11Z" fill="#f490fc" stroke="#252137" stroke-miterlimit="10" opacity="0.5" style="mix-blend-mode:color"/><path d="M312,299.18c.47.66,1,1.3,1.45,1.92C312.91,300.48,312.42,299.84,312,299.18Z" fill="#f490fc" stroke="#252137" stroke-miterlimit="10" opacity="0.5" style="mix-blend-mode:color"/><path d="M304.6,286.27c.39.86.8,1.7,1.21,2.53C305.4,288,305,287.13,304.6,286.27Z" fill="#f490fc" stroke="#252137" stroke-miterlimit="10" opacity="0.5" style="mix-blend-mode:color"/><path d="M384,248.22c-.3,1.13-.61,2.26-.92,3.38C383.37,250.48,383.68,249.35,384,248.22Z" fill="#f490fc" stroke="#252137" stroke-miterlimit="10" opacity="0.5" style="mix-blend-mode:color"/><path d="M382.93,252.1c-.32,1.15-.64,2.3-1,3.43C382.29,254.4,382.61,253.25,382.93,252.1Z" fill="#f490fc" stroke="#252137" stroke-miterlimit="10" opacity="0.5" style="mix-blend-mode:color"/><path d="M352.13,370.86l-1,.17Z" fill="#f490fc" stroke="#252137" stroke-miterlimit="10" opacity="0.5" style="mix-blend-mode:color"/><path d="M303.34,283.44c.39.91.79,1.81,1.19,2.68C304.13,285.25,303.73,284.35,303.34,283.44Z" fill="#f490fc" stroke="#252137" stroke-miterlimit="10" opacity="0.5" style="mix-blend-mode:color"/><path d="M310.4,296.93c.46.7.93,1.38,1.4,2C311.33,298.31,310.86,297.63,310.4,296.93Z" fill="#f490fc" stroke="#252137" stroke-miterlimit="10" opacity="0.5" style="mix-blend-mode:color"/><path d="M387.11,236.34q-1,3.76-2,7.49Q386.14,240.11,387.11,236.34Z" fill="#f490fc" stroke="#252137" stroke-miterlimit="10" opacity="0.5" style="mix-blend-mode:color"/><path d="M307.43,291.93c.41.77.84,1.52,1.27,2.25C308.27,293.45,307.84,292.7,307.43,291.93Z" fill="#f490fc" stroke="#252137" stroke-miterlimit="10" opacity="0.5" style="mix-blend-mode:color"/><path d="M308.93,294.56q.66,1.13,1.35,2.19Q309.59,295.69,308.93,294.56Z" fill="#f490fc" stroke="#252137" stroke-miterlimit="10" opacity="0.5" style="mix-blend-mode:color"/><path d="M385.06,244.19c-.31,1.16-.62,2.32-.92,3.47C384.44,246.51,384.75,245.35,385.06,244.19Z" fill="#f490fc" stroke="#252137" stroke-miterlimit="10" opacity="0.5" style="mix-blend-mode:color"/><path d="M305.92,364.8l.82.41Z" fill="#f490fc" stroke="#252137" stroke-miterlimit="10" opacity="0.5" style="mix-blend-mode:color"/><path d="M366,366.67l-.82.36Z" fill="#f490fc" stroke="#252137" stroke-miterlimit="10" opacity="0.5" style="mix-blend-mode:color"/><path d="M307.88,365.77l.83.39Z" fill="#f490fc" stroke="#252137" stroke-miterlimit="10" opacity="0.5" style="mix-blend-mode:color"/><path d="M368,365.75c-.27.14-.55.27-.83.39C367.44,366,367.72,365.89,368,365.75Z" fill="#f490fc" stroke="#252137" stroke-miterlimit="10" opacity="0.5" style="mix-blend-mode:color"/><path d="M309.91,366.69l.81.35Z" fill="#f490fc" stroke="#252137" stroke-miterlimit="10" opacity="0.5" style="mix-blend-mode:color"/><path d="M321.43,370.41l.92.19Z" fill="#f490fc" stroke="#252137" stroke-miterlimit="10" opacity="0.5" style="mix-blend-mode:color"/><path d="M334.57,313.37c.78.06,1.57.1,2.38.1C336.14,313.47,335.35,313.43,334.57,313.37Z" fill="#f490fc" stroke="#252137" stroke-miterlimit="10" opacity="0.5" style="mix-blend-mode:color"/><path d="M370,364.78l-.81.41Z" fill="#f490fc" stroke="#252137" stroke-miterlimit="10" opacity="0.5" style="mix-blend-mode:color"/><path d="M319.2,369.87c.27.08.55.14.82.21C319.75,370,319.47,370,319.2,369.87Z" fill="#f490fc" stroke="#252137" stroke-miterlimit="10" opacity="0.5" style="mix-blend-mode:color"/><path d="M371.87,363.74l-.78.43Z" fill="#f490fc" stroke="#252137" stroke-miterlimit="10" opacity="0.5" style="mix-blend-mode:color"/><path d="M317,369.27l.58.17Z" fill="#f490fc" stroke="#252137" stroke-miterlimit="10" opacity="0.5" style="mix-blend-mode:color"/><path d="M314.39,368.43l.48.17Z" fill="#f490fc" stroke="#252137" stroke-miterlimit="10" opacity="0.5" style="mix-blend-mode:color"/><path d="M363.87,367.54l-.78.3Z" fill="#f490fc" stroke="#252137" stroke-miterlimit="10" opacity="0.5" style="mix-blend-mode:color"/><path d="M312,367.56c.25.1.49.2.75.29C312.52,367.76,312.28,367.66,312,367.56Z" fill="#f490fc" stroke="#252137" stroke-miterlimit="10" opacity="0.5" style="mix-blend-mode:color"/><path d="M304,363.76l.79.44Z" fill="#f490fc" stroke="#252137" stroke-miterlimit="10" opacity="0.5" style="mix-blend-mode:color"/><path d="M294.44,357.18l.65.53Z" fill="#f490fc" stroke="#252137" stroke-miterlimit="10" opacity="0.5" style="mix-blend-mode:color"/><path d="M356.66,369.87l-.8.19Z" fill="#f490fc" stroke="#252137" stroke-miterlimit="10" opacity="0.5" style="mix-blend-mode:color"/><path d="M292.75,355.74l.67.59Z" fill="#f490fc" stroke="#252137" stroke-miterlimit="10" opacity="0.5" style="mix-blend-mode:color"/><path d="M302.14,362.67l.73.44Z" fill="#f490fc" stroke="#252137" stroke-miterlimit="10" opacity="0.5" style="mix-blend-mode:color"/><path d="M317,305.1c-.54-.53-1.07-1.07-1.58-1.64C315.94,304,316.47,304.57,317,305.1Z" fill="#f490fc" stroke="#252137" stroke-miterlimit="10" opacity="0.5" style="mix-blend-mode:color"/><path d="M354.43,370.4l-.92.19Z" fill="#f490fc" stroke="#252137" stroke-miterlimit="10" opacity="0.5" style="mix-blend-mode:color"/><path d="M291.11,354.27l.67.62Z" fill="#f490fc" stroke="#252137" stroke-miterlimit="10" opacity="0.5" style="mix-blend-mode:color"/><path d="M358.85,369.27l-.46.12Z" fill="#f490fc" stroke="#252137" stroke-miterlimit="10" opacity="0.5" style="mix-blend-mode:color"/><path d="M361.58,368.38l-.59.21Z" fill="#f490fc" stroke="#252137" stroke-miterlimit="10" opacity="0.5" style="mix-blend-mode:color"/><path d="M300.31,361.52l.63.4Z" fill="#f490fc" stroke="#252137" stroke-miterlimit="10" opacity="0.5" style="mix-blend-mode:color"/><path d="M298.53,360.31l.22.14Z" fill="#f490fc" stroke="#252137" stroke-miterlimit="10" opacity="0.5" style="mix-blend-mode:color"/><path d="M296.26,358.63l.53.41Z" fill="#f490fc" stroke="#252137" stroke-miterlimit="10" opacity="0.5" style="mix-blend-mode:color"/><path d="M202.22,116.36a7.94,7.94,0,0,0-.85,0v-.08c-35.05,0-59.68,44.05-85.23,74.81a8.72,8.72,0,0,1,2-1.62c7.35-4.24,19.24,2.6,26.57,15.29,6.07,10.51,7.08,21.72,3.07,27.67C170,205,180.61,174.86,202.38,174.86h0c8.71-.16,15.74-13.19,15.74-29.24S211,116.36,202.22,116.36Z" fill="#f490fc" stroke="#252137" stroke-miterlimit="10" opacity="0.5" style="mix-blend-mode:color"/><path d="M144.72,204.8c-7.33-12.69-19.22-19.53-26.57-15.29a8.72,8.72,0,0,0-2,1.62c-13.7,16.48-27.66,29.15-43.63,29.15L54,276.8c48.37,0,75.15-21.24,93.78-44.33C151.8,226.52,150.79,215.31,144.72,204.8Z" fill="#9fb1ff" stroke="#252137" stroke-miterlimit="10" opacity="0.5" style="mix-blend-mode:color"/><path d="M287.69,232.5l0,0c-14-54.39-29.68-116.16-86.36-116.16v.08a7.94,7.94,0,0,1,.85,0c8.78,0,15.9,13.09,15.9,29.25s-7,29.08-15.74,29.24h0c23,0,31.82,38.48,43.36,81.44l0,0a8.67,8.67,0,0,0,1.1,2.14c4.55,6.37,17.11,5.2,28.05-2.62C284.62,248.88,289.79,239.08,287.69,232.5Z" fill="#4580d6" stroke="#252137" stroke-miterlimit="10" opacity="0.5" style="mix-blend-mode:color"/><path d="M654.1,223.63s-28.07,9.26-56.64-2.51c-14.45-6-26.21-16.65-36.79-29,4.22,5.89,3.27,17.3-2.91,28-7.35,12.72-19.26,19.6-26.61,15.36a9.75,9.75,0,0,1-1.47-1.08c8.78,10.53,19.35,20.56,33,28.22,42.42,23.75,87.39,13.43,87.39,13.43" fill="none" stroke="#252137" stroke-miterlimit="10" opacity="0.5" style="mix-blend-mode:color"/><path d="M557.76,220.12c6.18-10.71,7.13-22.12,2.91-28-27.63-32.25-47.28-75.79-86.2-75.79v.08c8.39.81,15.06,13.58,15.06,29.21,0,16.15-7.12,29.25-15.91,29.25h-.16c22.29,0,32.9,31.55,56.22,59.54a9.75,9.75,0,0,0,1.47,1.08C538.5,239.72,550.41,232.84,557.76,220.12Z" fill="#f490fc" stroke="#252137" stroke-miterlimit="10" opacity="0.5" style="mix-blend-mode:color"/><path d="M80.64,219.28A9.28,9.28,0,0,0,74,216.7H62.86c-9-1.47-22.79,5.88-34,18.94-13.73,16-18.42,34.49-10.47,41.32a10.63,10.63,0,0,0,5.5,2.39h0a17.27,17.27,0,0,0,4.43,0H47.08v0c7.86.5,19.1-6.63,28.37-18.95C87.49,244.37,87.6,226.11,80.64,219.28Z" fill="#7962d6" stroke="#252137" stroke-miterlimit="10"/><circle cx="77.59" cy="225.37" r="1.96" fill="#5946c6" stroke="#252137" stroke-miterlimit="10" stroke-width="0.75"/><circle cx="72.28" cy="252.49" r="1.96" fill="#5946c6" stroke="#252137" stroke-miterlimit="10" stroke-width="0.75"/><circle cx="51.95" cy="273.58" r="1.69" fill="#5946c6" stroke="#252137" stroke-miterlimit="10" stroke-width="0.75"/><circle cx="77.77" cy="238.96" r="1.96" fill="#5946c6" stroke="#252137" stroke-miterlimit="10" stroke-width="0.75"/><circle cx="63.46" cy="264.22" r="1.96" fill="#5946c6" stroke="#252137" stroke-miterlimit="10" stroke-width="0.75"/><ellipse cx="43.24" cy="248" rx="38.17" ry="18.98" transform="translate(-173.04 119.18) rotate(-49.33)" fill="#c36eea" stroke="#252137" stroke-miterlimit="10"/><ellipse cx="43.24" cy="248" rx="29.29" ry="11.78" transform="translate(-173.04 119.18) rotate(-49.33)" fill="#5946c6" stroke="#252137" stroke-miterlimit="10"/></g></g></svg>