<svg id="bb735e67-c2ce-4bd8-a28e-cc8f8f192cfc" data-name="type-logo" xmlns="http://www.w3.org/2000/svg" xmlns:xlink="http://www.w3.org/1999/xlink" viewBox="0 0 230 56"><defs><linearGradient id="aefe548f-c9c3-4aaf-8bd4-e42d2c21c834" x1="29.15" y1="24.46" x2="-3.04" y2="64.74" gradientUnits="userSpaceOnUse"><stop offset="0" stop-color="#7239c7"/><stop offset="1" stop-color="#330046"/></linearGradient><linearGradient id="ba46a774-bd14-4461-98a1-0543e0ee9ccc" x1="85.25" y1="173.33" x2="116.61" y2="173.33" gradientTransform="translate(-84.82 -141.27) rotate(-5.2)" gradientUnits="userSpaceOnUse"><stop offset="0" stop-color="#ebff55"/><stop offset="1" stop-color="#f17e00"/></linearGradient><linearGradient id="b25d7237-e37b-412a-9488-7a963145a22a" x1="99.73" y1="171.83" x2="109.5" y2="181.38" gradientTransform="translate(-84.82 -141.27) rotate(-5.2)" gradientUnits="userSpaceOnUse"><stop offset="0" stop-opacity="0.3"/><stop offset="1" stop-opacity="0"/></linearGradient><linearGradient id="a8c56b05-8dc1-4965-85f8-c1767579c6a8" x1="105.58" y1="167.95" x2="64.23" y2="211.04" gradientTransform="translate(-84.82 -141.27) rotate(-5.2)" xlink:href="#aefe548f-c9c3-4aaf-8bd4-e42d2c21c834"/><linearGradient id="ad76162e-558c-451c-8d0a-251a31a7283a" x1="103.13" y1="171.61" x2="108.38" y2="165" gradientTransform="translate(-84.82 -141.27) rotate(-5.2)" xlink:href="#aefe548f-c9c3-4aaf-8bd4-e42d2c21c834"/><linearGradient id="e42a108b-3bb1-462d-ac43-fc532f32f143" x1="105.85" y1="168.31" x2="64.49" y2="211.4" gradientTransform="translate(-84.82 -141.27) rotate(-5.2)" xlink:href="#aefe548f-c9c3-4aaf-8bd4-e42d2c21c834"/><linearGradient id="e4eedf0d-e211-4866-9450-9eb83a84e541" x1="43.29" y1="18.52" x2="17.2" y2="44.46" gradientTransform="matrix(1, 0, 0, 1, -6.41, -0.43)" xlink:href="#aefe548f-c9c3-4aaf-8bd4-e42d2c21c834"/><linearGradient id="f39973cc-97b5-486c-9e52-dd9dbf1bb4c7" x1="88.42" y1="177.17" x2="89.66" y2="180.6" xlink:href="#b25d7237-e37b-412a-9488-7a963145a22a"/><radialGradient id="e0875f2b-ab93-4f7a-b7a1-be56f25dcf0a" cx="25.12" cy="34.51" r="16.1" gradientTransform="translate(-3.39 -1.21) scale(1 1.01)" gradientUnits="userSpaceOnUse"><stop offset="0" stop-color="#fff"/><stop offset="0.22" stop-color="#ebff55"/><stop offset="0.33" stop-color="#ebfa52"/><stop offset="0.46" stop-color="#ecec48"/><stop offset="0.6" stop-color="#edd438"/><stop offset="0.75" stop-color="#efb222"/><stop offset="0.9" stop-color="#f18806"/><stop offset="0.93" stop-color="#f17e00"/></radialGradient></defs><circle cx="24.45" cy="30.33" r="21.17" fill="url(#aefe548f-c9c3-4aaf-8bd4-e42d2c21c834)"/><path d="M23.52,24.41s8-20.14,20.88-19.24l1.08-.1s2.05,9.07-3.56,15.67a51.38,51.38,0,0,1-10.69,9.74s.65,4.45-.86,5.31A20.28,20.28,0,0,1,22.75,39s-1.4-1.34,1.63-4.17-1-5.27-1.9-4.82-5.38,3.77-5.38,3.77-2.24-7.22.81-8.47A11.72,11.72,0,0,1,23.52,24.41Z" fill="url(#ba46a774-bd14-4461-98a1-0543e0ee9ccc)"/><path d="M44.34,7.21c-1.81,4.13-7.66,16-17.26,21.75,0,0,1.65,3.6,1,4.88a3.93,3.93,0,0,1-2.28,1.68S27.51,32,25,30.73s.15.42.15.42-1.44,3.34-1.48,3.45S21.86,39.41,22,39.47s1.39-1.21,1.89-1.32c-.35-.48,5.17-1.56,5.91-3.84.34-.76.35-3.38.73-2.74,1.89-.57,5.64,1.12,5.86.74s7.77-8.24,7.76-8.35A25.19,25.19,0,0,1,43,20.65c.11-.22-12.47,9.62-12.36,9.34-.54.51-.78-.1.12-.86C35.76,25,40.3,20.73,42.3,17,45.28,11.48,44.34,7.21,44.34,7.21Z" fill="url(#b25d7237-e37b-412a-9488-7a963145a22a)"/><path d="M43.12,20.33c4.83-7,3.73-15,2.79-15.84-1.28-1.14-10.07,2.42-9.2,3.2,4-2,7.94-2.28,8.24-2s1.19,8.89-3.73,14.78c-2.81,3.38-8.43,7.78-10.31,9.22a1.1,1.1,0,0,0-.53,1c.19,1.09.47,3.52-.63,4.67-1.42,1.5-6.5,3.21-6.84,2.71s5.2-4.8,1.6-7.86-6.89,3.24-7.45,3,.2-5.56,1.42-7.23c.94-1.28,3.39-1.45,4.48-1.46a1.1,1.1,0,0,0,.9-.69c1.07-2.11,4.39-8.43,7.21-11.81a13.47,13.47,0,0,1,1.27-1.34A21.21,21.21,0,0,0,3.19,30.85c2.86.64,3.77,3.2,4.06,4.73.13.69.29.39.46.05a3.33,3.33,0,0,1,3.34-2.09c2.47.22,2.9,2.61,3,3.77,0,.39.32.51.52.39a97.22,97.22,0,0,0,8-6.38s.58-.58,1.12-.13.07,1.12.07,1.12a96.37,96.37,0,0,0-4.84,9c-.08.22.09.48.47.44,1.16-.12,3.59-.13,4.25,2.26a3.31,3.31,0,0,1-1.45,3.66c-.31.22-.57.44.13.44,1.56,0,4.26.45,5.39,3.16A21.18,21.18,0,0,0,38.5,46.15a18.15,18.15,0,0,0,5.3-7.27A21.3,21.3,0,0,0,43.12,20.33Z" fill="url(#a8c56b05-8dc1-4965-85f8-c1767579c6a8)"/><path d="M35.28,12.73a4.17,4.17,0,1,0,4.53,3.78A4.18,4.18,0,0,0,35.28,12.73Z" fill="#fff"/><path d="M35.34,13.4a3.5,3.5,0,1,0,3.8,3.17A3.51,3.51,0,0,0,35.34,13.4Z" fill="url(#ad76162e-558c-451c-8d0a-251a31a7283a)"/><path d="M35.05,14.57a2.85,2.85,0,1,0,3.11,2.58A2.85,2.85,0,0,0,35.05,14.57Z" fill="url(#e42a108b-3bb1-462d-ac43-fc532f32f143)"/><path d="M43,20.37c.07-.09.46-.68.47-.71s.48-.79.5-.84c3.69-6.54,2.69-13.46,1.82-14.23C44.5,3.47,35.74,7,36.6,7.78c4-1.95,7.92-2.27,8.22-2,.45.37,1.18,8.85-3.72,14.72-2.8,3.37-8.41,7.74-10.28,9.17a1.09,1.09,0,0,0-.52,1c.18,1.07.46,3.5-.63,4.65C28.25,36.8,23.18,38.5,22.84,38s5.18-4.82,1.6-7.86a5.79,5.79,0,0,0-1.41-.8h.06v.08C20,28.69,17.52,33.37,17,33.15s.19-5.53,1.4-7.19a2.6,2.6,0,0,1,.69-.63h0s-1.73.44-2.48,3.3A26.38,26.38,0,0,0,16,34.55c0,.56-.72.62-.7-.28A4.15,4.15,0,0,0,14,30.93c-1.94-1.74-4.3-.5-5,0-.15.1-.3-.16-.34-.32a5.55,5.55,0,0,0-2.1-3.31c0-7.89,6.3-14.75,10.57-16.85a21.12,21.12,0,0,0-14,20.41c2.84.63,3.75,3.18,4,4.71.13.68.29.38.46,0A3.29,3.29,0,0,1,11,33.52c2.47.22,2.9,2.6,3,3.76,0,.38.32.5.52.38a96.9,96.9,0,0,0,8-6.35,1,1,0,0,1,.7-.3.84.84,0,0,1,.41.17c.54.45.07,1.12.07,1.12a97.33,97.33,0,0,0-4.83,9c-.08.22.09.46.47.42a.45.45,0,0,0,.11,0h0a9.11,9.11,0,0,1,.92,0,3.16,3.16,0,0,1,3.21,2.3,3.29,3.29,0,0,1-1.45,3.64c-.3.23-.57.44.13.45,1.56,0,4.28.42,5.41,3.13a14.69,14.69,0,0,0,3-.71h0A23.71,23.71,0,0,0,33,49.54s0,0,0,0h0a20.32,20.32,0,0,0,5.38-3.46,15.42,15.42,0,0,0,5.29-7.22A21.14,21.14,0,0,0,43,20.37ZM31.08,46.82h0a5.38,5.38,0,0,0-4-.59c-.28.05-.28-.17-.22-.3a3.56,3.56,0,0,0-1-4.52c-1.47-1-3.64-.44-3.77-.59s.36-1.07.36-1.07a28.62,28.62,0,0,0,7.54-3c2.21-1.21,2.06-4.22,1.79-5.26a1,1,0,0,1,.52-1.33,59.58,59.58,0,0,0,9.41-8.49v0S48,38.31,31.08,46.82Z" fill="url(#e4eedf0d-e211-4866-9450-9eb83a84e541)"/><path d="M17.41,32.88S19,28.07,20,27.52s4.71.77,4.46,1.07a1.28,1.28,0,0,1-.54.2,15.19,15.19,0,0,0-3.51,1C19,30.54,17.4,33.64,17.41,32.88Z" fill="url(#f39973cc-97b5-486c-9e52-dd9dbf1bb4c7)"/><path d="M3.18,30.87A21.2,21.2,0,0,0,24.3,51.5a20.84,20.84,0,0,0,3.28-.26,5.54,5.54,0,0,0-5.33-3.06c-.7,0-.44-.22-.13-.45a3.35,3.35,0,0,0,1.45-3.68c-.66-2.41-3.09-2.4-4.24-2.27-.39,0-.56-.22-.47-.44a97.17,97.17,0,0,1,4.83-9.05s.47-.67-.07-1.12-1.12.13-1.12.13a95.43,95.43,0,0,1-8,6.41c-.2.12-.49,0-.51-.39-.09-1.16-.51-3.57-3-3.79a3.32,3.32,0,0,0-3.33,2.1c-.16.35-.32.64-.45-.05-.29-1.53-1.2-4.12-4.06-4.75Z" fill="url(#e0875f2b-ab93-4f7a-b7a1-be56f25dcf0a)"/><path d="M63.07,16.67V42.85H57.53V16.67Z" fill="#fff"/><path d="M72,31.5V42.85H66.56V23.22h5.19v3.46H72A5.51,5.51,0,0,1,74.16,24a6.67,6.67,0,0,1,3.72-1,7,7,0,0,1,3.57.89,6.1,6.1,0,0,1,2.36,2.56,8.45,8.45,0,0,1,.85,3.94v12.5H79.21V31.32a4,4,0,0,0-.92-2.82,3.3,3.3,0,0,0-2.57-1,3.78,3.78,0,0,0-1.93.47,3.21,3.21,0,0,0-1.31,1.37A4.83,4.83,0,0,0,72,31.5Z" fill="#fff"/><path d="M98.53,23.22v4.09H86.41V23.22ZM89.18,42.85v-21A6.77,6.77,0,0,1,90,18.26a5.21,5.21,0,0,1,2.3-2.11,7.49,7.49,0,0,1,3.31-.71,13.42,13.42,0,0,1,2.29.19c.7.13,1.21.25,1.56.35l-1,4.09a6.39,6.39,0,0,0-.78-.19,5,5,0,0,0-1-.09,2.12,2.12,0,0,0-1.68.56,2.33,2.33,0,0,0-.47,1.55v21Z" fill="#fff"/><path d="M109.06,43.24A10,10,0,0,1,103.92,42a8.57,8.57,0,0,1-3.35-3.55,11.46,11.46,0,0,1-1.17-5.3,11.49,11.49,0,0,1,1.17-5.32,8.59,8.59,0,0,1,3.35-3.56,11.06,11.06,0,0,1,10.29,0,8.57,8.57,0,0,1,3.34,3.56,11.37,11.37,0,0,1,1.18,5.32,11.34,11.34,0,0,1-1.18,5.3A8.54,8.54,0,0,1,114.21,42,10,10,0,0,1,109.06,43.24Zm0-4.22a3.34,3.34,0,0,0,2.26-.78,4.78,4.78,0,0,0,1.38-2.11,9.37,9.37,0,0,0,.46-3.06,9.27,9.27,0,0,0-.46-3.05,4.85,4.85,0,0,0-1.38-2.13,3.39,3.39,0,0,0-2.26-.78,3.52,3.52,0,0,0-2.3.78A4.78,4.78,0,0,0,105.4,30a9.26,9.26,0,0,0-.47,3.05,9.36,9.36,0,0,0,.47,3.06,4.71,4.71,0,0,0,1.39,2.11A3.46,3.46,0,0,0,109.09,39Z" fill="#fff"/><path d="M126.76,31.5V42.85h-5.45V23.22h5.19v3.46h.23A5.48,5.48,0,0,1,128.92,24a6.63,6.63,0,0,1,3.72-1,6.94,6.94,0,0,1,3.56.89,6.06,6.06,0,0,1,2.37,2.56,8.58,8.58,0,0,1,.84,3.94v12.5H134V31.32A4,4,0,0,0,133,28.5a3.28,3.28,0,0,0-2.56-1,3.82,3.82,0,0,0-1.94.47,3.27,3.27,0,0,0-1.31,1.37A4.7,4.7,0,0,0,126.76,31.5Z" fill="#fff"/><path d="M151.59,43.24A10,10,0,0,1,146.45,42a8.48,8.48,0,0,1-3.34-3.55,11.34,11.34,0,0,1-1.18-5.3,11.37,11.37,0,0,1,1.18-5.32,8.51,8.51,0,0,1,3.34-3.56,11.06,11.06,0,0,1,10.29,0,8.57,8.57,0,0,1,3.34,3.56,11.37,11.37,0,0,1,1.18,5.32,11.34,11.34,0,0,1-1.18,5.3A8.54,8.54,0,0,1,156.74,42,10,10,0,0,1,151.59,43.24Zm0-4.22a3.34,3.34,0,0,0,2.26-.78,4.69,4.69,0,0,0,1.38-2.11,9.37,9.37,0,0,0,.46-3.06,9.27,9.27,0,0,0-.46-3.05,4.76,4.76,0,0,0-1.38-2.13,3.39,3.39,0,0,0-2.26-.78,3.47,3.47,0,0,0-2.29.78,4.71,4.71,0,0,0-1.4,2.13,9.26,9.26,0,0,0-.47,3.05,9.36,9.36,0,0,0,.47,3.06,4.64,4.64,0,0,0,1.4,2.11A3.42,3.42,0,0,0,151.62,39Z" fill="#fff"/><path d="M163.84,42.85V23.22H169v3.46h.23A5.4,5.4,0,0,1,171.31,24a6.38,6.38,0,0,1,6.86,0,4.76,4.76,0,0,1,1.89,2.72h.21a5.24,5.24,0,0,1,2.18-2.7,6.74,6.74,0,0,1,3.74-1,6,6,0,0,1,4.47,1.75,6.76,6.76,0,0,1,1.72,4.94v13.2h-5.44V30.72a3.2,3.2,0,0,0-.87-2.45,3,3,0,0,0-2.17-.82,2.9,2.9,0,0,0-2.31.94,3.56,3.56,0,0,0-.84,2.47v12h-5.28V30.6a3.19,3.19,0,0,0-.82-2.3,2.87,2.87,0,0,0-2.17-.85,3,3,0,0,0-1.63.45,3.2,3.2,0,0,0-1.14,1.27,4.05,4.05,0,0,0-.42,1.89V42.85Z" fill="#fff"/><path d="M198.43,20.68a2.9,2.9,0,0,1-2.07-.81,2.57,2.57,0,0,1-.87-1.95,2.54,2.54,0,0,1,.87-1.93,3,3,0,0,1,4.15,0,2.54,2.54,0,0,1,.87,1.93,2.57,2.57,0,0,1-.87,1.95A2.92,2.92,0,0,1,198.43,20.68ZM195.7,42.85V23.22h5.44V42.85Z" fill="#fff"/><path d="M213.39,43.24A9.93,9.93,0,0,1,208.21,42a8.56,8.56,0,0,1-3.33-3.57,11.55,11.55,0,0,1-1.15-5.27,11.46,11.46,0,0,1,1.17-5.3,8.69,8.69,0,0,1,3.33-3.57A9.92,9.92,0,0,1,213.37,23a10.28,10.28,0,0,1,4.5.93,7.65,7.65,0,0,1,3,2.62,7.76,7.76,0,0,1,1.24,4H217a4,4,0,0,0-1.14-2.37,3.3,3.3,0,0,0-2.42-.91,3.63,3.63,0,0,0-2.21.69,4.29,4.29,0,0,0-1.46,2,8.44,8.44,0,0,0-.53,3.15,8.65,8.65,0,0,0,.52,3.2,4.35,4.35,0,0,0,1.46,2,3.66,3.66,0,0,0,2.22.69,3.52,3.52,0,0,0,1.67-.39,3.24,3.24,0,0,0,1.25-1.11,4.38,4.38,0,0,0,.64-1.78h5.14a8,8,0,0,1-1.22,4,7.44,7.44,0,0,1-3,2.67A10,10,0,0,1,213.39,43.24Z" fill="#fff"/></svg>